<?xml version="1.0" standalone="no"?>
<!DOCTYPE svg PUBLIC "-//W3C//DTD SVG 1.1//EN" "http://www.w3.org/Graphics/SVG/1.1/DTD/svg11.dtd" >
<svg xmlns="http://www.w3.org/2000/svg">
<metadata>Generated by IcoMoon</metadata>
<defs>
<font id="icomoon" horiz-adv-x="1024">
<font-face units-per-em="1024" ascent="960" descent="-64" />
<missing-glyph horiz-adv-x="1024" />
<glyph unicode="&#x20;" horiz-adv-x="512" d="" />
<glyph unicode="&#xe900;" glyph-name="twitter" horiz-adv-x="951" d="M925.714 717.714c-25.143-36.571-56.571-69.143-92.571-95.429 0.571-8 0.571-16 0.571-24 0-244-185.714-525.143-525.143-525.143-104.571 0-201.714 30.286-283.429 82.857 14.857-1.714 29.143-2.286 44.571-2.286 86.286 0 165.714 29.143 229.143 78.857-81.143 1.714-149.143 54.857-172.571 128 11.429-1.714 22.857-2.857 34.857-2.857 16.571 0 33.143 2.286 48.571 6.286-84.571 17.143-148 91.429-148 181.143v2.286c24.571-13.714 53.143-22.286 83.429-23.429-49.714 33.143-82.286 89.714-82.286 153.714 0 34.286 9.143 65.714 25.143 93.143 90.857-112 227.429-185.143 380.571-193.143-2.857 13.714-4.571 28-4.571 42.286 0 101.714 82.286 184.571 184.571 184.571 53.143 0 101.143-22.286 134.857-58.286 41.714 8 81.714 23.429 117.143 44.571-13.714-42.857-42.857-78.857-81.143-101.714 37.143 4 73.143 14.286 106.286 28.571z" />
<glyph unicode="&#xe901;" glyph-name="instagram" horiz-adv-x="878" d="M585.143 438.857c0 80.571-65.714 146.286-146.286 146.286s-146.286-65.714-146.286-146.286 65.714-146.286 146.286-146.286 146.286 65.714 146.286 146.286zM664 438.857c0-124.571-100.571-225.143-225.143-225.143s-225.143 100.571-225.143 225.143 100.571 225.143 225.143 225.143 225.143-100.571 225.143-225.143zM725.714 673.143c0-29.143-23.429-52.571-52.571-52.571s-52.571 23.429-52.571 52.571 23.429 52.571 52.571 52.571 52.571-23.429 52.571-52.571zM438.857 798.857c-64 0-201.143 5.143-258.857-17.714-20-8-34.857-17.714-50.286-33.143s-25.143-30.286-33.143-50.286c-22.857-57.714-17.714-194.857-17.714-258.857s-5.143-201.143 17.714-258.857c8-20 17.714-34.857 33.143-50.286s30.286-25.143 50.286-33.143c57.714-22.857 194.857-17.714 258.857-17.714s201.143-5.143 258.857 17.714c20 8 34.857 17.714 50.286 33.143s25.143 30.286 33.143 50.286c22.857 57.714 17.714 194.857 17.714 258.857s5.143 201.143-17.714 258.857c-8 20-17.714 34.857-33.143 50.286s-30.286 25.143-50.286 33.143c-57.714 22.857-194.857 17.714-258.857 17.714zM877.714 438.857c0-60.571 0.571-120.571-2.857-181.143-3.429-70.286-19.429-132.571-70.857-184s-113.714-67.429-184-70.857c-60.571-3.429-120.571-2.857-181.143-2.857s-120.571-0.571-181.143 2.857c-70.286 3.429-132.571 19.429-184 70.857s-67.429 113.714-70.857 184c-3.429 60.571-2.857 120.571-2.857 181.143s-0.571 120.571 2.857 181.143c3.429 70.286 19.429 132.571 70.857 184s113.714 67.429 184 70.857c60.571 3.429 120.571 2.857 181.143 2.857s120.571 0.571 181.143-2.857c70.286-3.429 132.571-19.429 184-70.857s67.429-113.714 70.857-184c3.429-60.571 2.857-120.571 2.857-181.143z" />
<glyph unicode="&#xe902;" glyph-name="facebook" horiz-adv-x="602" d="M548 944v-150.857h-89.714c-70.286 0-83.429-33.714-83.429-82.286v-108h167.429l-22.286-169.143h-145.143v-433.714h-174.857v433.714h-145.714v169.143h145.714v124.571c0 144.571 88.571 223.429 217.714 223.429 61.714 0 114.857-4.571 130.286-6.857z" />
<glyph unicode="&#xe903;" glyph-name="trophy" d="M587.179-30.476h-166.4c-25.6 0-42.667 17.067-42.667 42.667v192c-85.333 59.733-145.067 153.6-166.4 260.267-34.133 153.6 0 396.8 0 405.333 4.267 21.333 21.333 38.4 42.667 38.4h499.2c21.333 0 38.4-17.067 42.667-38.4 0-8.533 34.133-251.733 0-409.6-17.067-102.4-76.8-196.267-166.4-260.267v-187.733c0-25.6-21.333-42.667-42.667-42.667zM463.445 54.857h81.067v170.667c0 12.8 8.533 29.867 21.333 34.133 76.8 46.933 132.267 128 145.067 217.6 25.6 110.933 12.8 273.067 4.267 345.6h-422.4c-8.533-72.533-21.333-234.667 4.267-341.333 17.067-89.6 68.267-170.667 149.333-217.6 12.8-8.533 21.333-21.333 21.333-34.133v-174.933zM753.579-30.476h-499.2c-25.6 0-42.667 17.067-42.667 42.667s17.067 42.667 42.667 42.667h499.2c25.6 0 42.667-17.067 42.667-42.667s-21.333-42.667-42.667-42.667zM275.712 366.324c-72.533 4.267-136.533 29.867-183.467 81.067-98.133 106.667-93.867 281.6-89.6 290.133 0 21.333 21.333 42.667 42.667 42.667h204.8v-85.333h-162.133c4.267-51.2 17.067-136.533 68.267-192 29.867-34.133 72.533-51.2 119.467-51.2v-85.333zM254.379 362.057c-217.6 46.933-238.933 243.2-247.467 311.467 0 4.267 0 8.533 0 12.8-8.533 29.867 4.267 55.467 17.067 68.267 21.333 25.6 51.2 25.6 59.733 25.6h157.867v-85.333h-149.333c0-4.267 0-8.533 0-12.8 12.8-98.133 42.667-204.8 179.2-234.667l-17.067-85.333zM745.045 357.79l-17.067 85.333c115.2 25.6 183.467 106.667 204.8 251.733 0 0 0 0 0 0h-149.333v85.333h153.6c4.267 0 38.4 0 59.733-25.6 12.8-12.8 21.333-34.133 17.067-68.267-34.133-234.667-166.4-307.2-268.8-328.533z" />
<glyph unicode="&#xe904;" glyph-name="back-arrow" d="M709.534 906.142c14.629 0 24.381-4.876 34.133-14.629 19.505-19.505 19.505-48.762 0-68.267l-394.971-394.971 394.971-399.848c19.505-19.505 19.505-48.762 0-68.267s-48.762-19.505-68.267 0l-429.105 429.105c-19.505 19.505-19.505 48.762 0 68.267l429.105 429.105c9.752 14.629 24.381 19.505 34.133 19.505z" />
<glyph unicode="&#xe905;" glyph-name="bottom-arrow" horiz-adv-x="1016" d="M506.372-72.381c-8.463 0-21.157 4.231-29.62 12.694l-385.058 368.132c-16.926 16.926-16.926 42.314 0 59.24s42.314 16.926 59.24 0l355.438-342.744 355.438 342.744c16.926 16.926 42.314 16.926 59.24 0s16.926-42.314 0-59.24l-385.058-372.364c-8.463-4.231-16.926-8.463-29.62-8.463zM510.604-0.447c-25.388 0-42.314 16.926-42.314 42.314v867.438c0 25.388 16.926 42.314 42.314 42.314s42.314-16.926 42.314-42.314v-867.438c0-25.388-21.157-42.314-42.314-42.314z" />
<glyph unicode="&#xe906;" glyph-name="buy" d="M853.333 54.857h-682.667c-72.533 0-128 55.467-128 128v469.333c0 72.533 55.467 128 128 128h682.667c72.533 0 128-55.467 128-128v-469.333c0-72.533-55.467-128-128-128zM170.667 694.857c-25.6 0-42.667-17.067-42.667-42.667v-469.333c0-25.6 17.067-42.667 42.667-42.667h682.667c25.6 0 42.667 17.067 42.667 42.667v469.333c0 25.6-17.067 42.667-42.667 42.667h-682.667zM42.667 566.857h938.667v-85.333h-938.667v85.333z" />
<glyph unicode="&#xe907;" glyph-name="calander" d="M837.591-73.143h-651.264c-90.112 0-163.84 73.728-163.84 163.84v614.4c0 90.112 73.728 163.84 163.84 163.84h651.264c90.112 0 163.84-73.728 163.84-163.84v-614.4c0-90.112-73.728-163.84-163.84-163.84zM186.327 787.017c-45.056 0-81.92-36.864-81.92-81.92v-614.4c0-45.056 36.864-81.92 81.92-81.92h651.264c45.056 0 81.92 36.864 81.92 81.92v614.4c0 45.056-36.864 81.92-81.92 81.92h-651.264zM288.727 787.017c-24.576 0-40.96 16.384-40.96 40.96v81.92c0 24.576 16.384 40.96 40.96 40.96s40.96-16.384 40.96-40.96v-81.92c0-24.576-20.48-40.96-40.96-40.96zM735.191 787.017c-24.576 0-40.96 16.384-40.96 40.96v81.92c0 24.576 16.384 40.96 40.96 40.96s40.96-16.384 40.96-40.96v-81.92c0-24.576-16.384-40.96-40.96-40.96zM960.471 553.545h-897.024c-24.576 0-40.96 16.384-40.96 40.96s16.384 40.96 40.96 40.96h897.024c24.576 0 40.96-16.384 40.96-40.96s-16.384-40.96-40.96-40.96zM395.223 332.361h-81.92c-24.576 0-40.96 16.384-40.96 40.96s16.384 40.96 40.96 40.96h81.92c24.576 0 40.96-16.384 40.96-40.96s-20.48-40.96-40.96-40.96zM710.615 332.361h-81.92c-24.576 0-40.96 16.384-40.96 40.96s16.384 40.96 40.96 40.96h81.92c24.576 0 40.96-16.384 40.96-40.96s-16.384-40.96-40.96-40.96zM395.223 152.137h-81.92c-24.576 0-40.96 16.384-40.96 40.96s16.384 40.96 40.96 40.96h81.92c24.576 0 40.96-16.384 40.96-40.96s-20.48-40.96-40.96-40.96zM710.615 152.137h-81.92c-24.576 0-40.96 16.384-40.96 40.96s16.384 40.96 40.96 40.96h81.92c24.576 0 40.96-16.384 40.96-40.96s-16.384-40.96-40.96-40.96z" />
<glyph unicode="&#xe908;" glyph-name="copy" d="M810.667-73.143h-256c-93.867 0-170.667 76.8-170.667 170.667v341.333c0 93.867 76.8 170.667 170.667 170.667h256c93.867 0 170.667-76.8 170.667-170.667v-341.333c0-93.867-76.8-170.667-170.667-170.667zM554.667 524.19c-46.933 0-85.333-38.4-85.333-85.333v-341.333c0-46.933 38.4-85.333 85.333-85.333h256c46.933 0 85.333 38.4 85.333 85.333v341.333c0 46.933-38.4 85.333-85.333 85.333h-256zM298.667 268.19h-85.333c-93.867 0-170.667 76.8-170.667 170.667v341.333c0 93.867 76.8 170.667 170.667 170.667h256c93.867 0 170.667-76.8 170.667-170.667v-85.333c0-25.6-17.067-42.667-42.667-42.667s-42.667 17.067-42.667 42.667v85.333c0 46.933-38.4 85.333-85.333 85.333h-256c-46.933 0-85.333-38.4-85.333-85.333v-341.333c0-46.933 38.4-85.333 85.333-85.333h85.333c25.6 0 42.667-17.067 42.667-42.667s-17.067-42.667-42.667-42.667z" />
<glyph unicode="&#xe909;" glyph-name="depoist" horiz-adv-x="1033" d="M936.832-62.903h-840.533c-46.933 0-85.333 38.4-85.333 85.333v128c0 46.933 38.4 85.333 85.333 85.333h840.533c46.933 0 85.333-38.4 85.333-85.333v-128c0-46.933-38.4-85.333-85.333-85.333zM96.299 150.43v0-128h840.533v128h-840.533zM437.632 150.43h-298.667v456.533h298.667v-456.533zM224.299 235.764h128v285.867h-128v-285.867zM894.165 150.43h-298.667v456.533h298.667v-456.533zM680.832 235.764h128v285.867h-128v-285.867zM87.765 521.63c0 0-4.267 0 0 0-46.933 0-85.333 38.4-85.333 85.333 0 29.867 17.067 59.733 42.667 72.533l430.933 247.467c25.6 17.067 59.733 17.067 85.333 0l430.933-247.467c42.667-21.333 55.467-76.8 29.867-115.2-17.067-25.6-42.667-42.667-72.533-42.667h-861.867zM87.765 606.964h861.867l-435.2 251.733-426.667-251.733z" />
<glyph unicode="&#xe90a;" glyph-name="dollar" horiz-adv-x="593" d="M295.339 63.39c-290.133 0-294.4 170.667-294.4 179.2 0 25.6 17.067 42.667 42.667 42.667s42.667-17.067 42.667-42.667c0-4.267 8.533-93.867 209.067-93.867 196.267 0 213.333 106.667 213.333 140.8 0 81.067-76.8 128-213.333 128-115.2 0-200.533 25.6-247.467 76.8-51.2 55.467-46.933 128-46.933 153.6 4.267 42.667 34.133 179.2 294.4 179.2 183.467 0 251.733-110.933 264.533-170.667 4.267-21.333-8.533-46.933-29.867-51.2s-46.933 8.533-51.2 34.133c0 4.267-25.6 102.4-183.467 102.4-149.333 0-204.8-51.2-209.067-98.133 0-29.867 0-64 21.333-89.6 29.867-34.133 93.867-51.2 187.733-51.2 277.333 0 298.667-162.133 298.667-213.333 0-106.667-76.8-226.133-298.667-226.133zM295.339-73.143c-25.6 0-42.667 17.067-42.667 42.667v938.667c0 25.6 17.067 42.667 42.667 42.667s42.667-17.067 42.667-42.667v-938.667c0-25.6-17.067-42.667-42.667-42.667z" />
<glyph unicode="&#xe90b;" glyph-name="down" d="M512 196.331c-16.168 0-26.947 5.389-37.726 16.168l-377.263 377.263c-21.558 21.558-21.558 53.895 0 75.453s53.895 21.558 75.453 0l339.537-339.537 339.537 339.537c21.558 21.558 53.895 21.558 75.453 0s21.558-53.895 0-75.453l-377.263-377.263c-10.779-10.779-21.558-16.168-37.726-16.168z" />
<glyph unicode="&#xe90c;" glyph-name="history" d="M682.667-30.476c0 0 0 0 0 0-4.267 0-4.267 0-4.267 0h-507.733c0 0-4.267 0-4.267 0-68.267 0-123.733 59.733-123.733 128v128c0 25.6 17.067 42.667 42.667 42.667h512c25.6 0 42.667-17.067 42.667-42.667v-128c0-25.6 17.067-42.667 38.4-42.667h4.267c0 0 0 0 0 0 21.333 0 42.667 17.067 42.667 38.4v558.933c0 0 0 0 0 0s0 0 0 0v128c0 72.533 55.467 128 128 128s128-55.467 128-128v-128c0-25.6-17.067-42.667-42.667-42.667h-128v-512c0 0 0-4.267 0-4.267 0-68.267-59.733-123.733-128-123.733zM128 182.857v-85.333c0-21.333 17.067-42.667 38.4-42.667h392.533c-4.267 12.8-8.533 25.6-8.533 38.4 0 0 0 4.267 0 4.267v85.333h-422.4zM810.667 694.857h85.333v85.333c0 25.6-17.067 42.667-42.667 42.667s-42.667-17.067-42.667-42.667v-85.333zM213.333 182.857c-25.6 0-42.667 17.067-42.667 42.667v554.667c0 34.133 12.8 64 34.133 89.6 25.6 25.6 55.467 38.4 89.6 38.4 0 0 4.267 0 4.267 0h554.667c25.6 0 42.667-17.067 42.667-42.667s-17.067-42.667-42.667-42.667h-554.667c-12.8 0-25.6-4.267-29.867-12.8s-12.8-17.067-12.8-29.867v-554.667c0-25.6-17.067-42.667-42.667-42.667zM597.333 566.857h-213.333c-25.6 0-42.667 17.067-42.667 42.667s17.067 42.667 42.667 42.667h213.333c25.6 0 42.667-17.067 42.667-42.667s-17.067-42.667-42.667-42.667zM597.333 396.19h-213.333c-25.6 0-42.667 17.067-42.667 42.667s17.067 42.667 42.667 42.667h213.333c25.6 0 42.667-17.067 42.667-42.667s-17.067-42.667-42.667-42.667z" />
<glyph unicode="&#xe90d;" glyph-name="log-out" d="M426.667 12.19c-110.933 0-217.6 42.667-302.933 123.733-166.4 166.4-166.4 439.467 0 605.867s439.467 166.4 605.867 0c17.067-17.067 17.067-42.667 0-59.733s-42.667-17.067-59.733 0c-132.267 132.267-349.867 132.267-482.133 0s-132.267-349.867 0-482.133c132.267-132.267 349.867-132.267 482.133 0 17.067 17.067 42.667 17.067 59.733 0s17.067-42.667 0-59.733c-85.333-85.333-192-128-302.933-128zM853.333 268.19c-8.533 0-21.333 4.267-29.867 12.8-17.067 17.067-21.333 42.667-4.267 59.733l89.6 98.133-89.6 98.133c-17.067 17.067-12.8 42.667 4.267 59.733s42.667 12.8 59.733-4.267l115.2-128c12.8-17.067 12.8-42.667 0-55.467l-115.2-128c-8.533-8.533-17.067-12.8-29.867-12.8zM960 396.19h-533.333c-25.6 0-42.667 17.067-42.667 42.667s17.067 42.667 42.667 42.667h533.333c25.6 0 42.667-17.067 42.667-42.667s-17.067-42.667-42.667-42.667z" />
<glyph unicode="&#xe90e;" glyph-name="message" d="M81.067-30.476c-42.667 0-81.067 38.4-81.067 81.067v345.6c0 4.267 0 8.533 0 12.8 0 8.533 0 17.067 0 25.6v157.867c0 153.6 123.733 277.333 277.333 277.333h469.333c153.6 0 277.333-123.733 277.333-277.333v-157.867c0-153.6-123.733-277.333-277.333-277.333h-401.067c-8.533 0-17.067-4.267-21.333-8.533l-187.733-162.133c-17.067-8.533-34.133-17.067-55.467-17.067zM277.333 784.457c-106.667 0-192-89.6-192-192v-157.867c0-8.533 0-17.067 0-21.333v-354.133l179.2 157.867c21.333 17.067 51.2 29.867 76.8 29.867h401.067c106.667 0 192 85.333 192 192v153.6c0 106.667-85.333 192-192 192h-465.067z" />
<glyph unicode="&#xe90f;" glyph-name="money" d="M294.4 268.19h-166.4c-72.533 0-128 55.467-128 128v256c0 72.533 55.467 128 128 128h512c72.533 0 128-55.467 128-128v-85.333h-85.333v85.333c0 25.6-17.067 42.667-42.667 42.667h-512c-25.6 0-42.667-17.067-42.667-42.667v-256c0-25.6 17.067-42.667 42.667-42.667h166.4v-85.333zM896 97.524h-512c-72.533 0-128 55.467-128 128v256c0 72.533 55.467 128 128 128h512c72.533 0 128-55.467 128-128v-256c0-72.533-55.467-128-128-128zM384 524.19c-25.6 0-42.667-17.067-42.667-42.667v-256c0-25.6 17.067-42.667 42.667-42.667h512c25.6 0 42.667 17.067 42.667 42.667v256c0 25.6-17.067 42.667-42.667 42.667h-512zM640 225.524c-72.533 0-128 55.467-128 128s55.467 128 128 128 128-55.467 128-128-55.467-128-128-128zM640 396.19c-25.6 0-42.667-17.067-42.667-42.667s17.067-42.667 42.667-42.667 42.667 17.067 42.667 42.667-17.067 42.667-42.667 42.667z" />
<glyph unicode="&#xe910;" glyph-name="next-arrow" d="M314.466-28.428c-14.629 0-24.381 4.876-34.133 14.629-19.505 19.505-19.505 48.762 0 68.267l394.971 394.971-394.971 399.848c-19.505 19.505-19.505 48.762 0 68.267s48.762 19.505 68.267 0l429.105-429.105c19.505-19.505 19.505-48.762 0-68.267l-429.105-429.105c-9.752-14.629-24.381-19.505-34.133-19.505z" />
<glyph unicode="&#xe911;" glyph-name="setting" d="M512.381 226.906c-118.479 0-211.57 93.091-211.57 211.57s93.091 211.57 211.57 211.57c118.479 0 211.57-93.091 211.57-211.57s-93.091-211.57-211.57-211.57zM512.381 565.418c-71.934 0-126.942-55.008-126.942-126.942s55.008-126.942 126.942-126.942c71.934 0 126.942 55.008 126.942 126.942s-55.008 126.942-126.942 126.942zM512.381-73.524c-21.157 0-46.545 4.231-63.471 16.926s-33.851 25.388-42.314 42.314l-29.62 50.777c-8.463 16.926-29.62 25.388-46.545 21.157l-55.008-12.694c-38.083-8.463-71.934-4.231-101.554 12.694s-50.777 46.545-59.24 76.165c-4.231 21.157-4.231 42.314 0 63.471l16.926 55.008c4.231 16.926-4.231 38.083-21.157 46.545l-50.777 29.62c-29.62 16.926-50.777 46.545-59.24 76.165-8.463 33.851-4.231 67.702 12.694 97.322 12.694 16.926 25.388 33.851 42.314 42.314l50.777 29.62c21.157 12.694 29.62 33.851 25.388 50.777l-16.926 55.008c-16.926 67.702 25.388 135.405 93.091 156.562 21.157 4.231 42.314 4.231 63.471 0l55.008-16.926c16.926-4.231 38.083 4.231 46.545 21.157l29.62 50.777c38.083 59.24 114.248 80.397 173.488 42.314 16.926-12.694 33.851-25.388 42.314-42.314l29.62-50.777c8.463-16.926 29.62-25.388 46.545-21.157l55.008 12.694c67.702 16.926 135.405-25.388 152.331-93.091 4.231-21.157 4.231-42.314 0-63.471l-8.463-50.777c-4.231-16.926 4.231-38.083 21.157-46.545l50.777-29.62c59.24-38.083 80.397-114.248 42.314-173.488-12.694-16.926-25.388-33.851-42.314-42.314l-50.777-29.62c-16.926-8.463-25.388-29.62-21.157-46.545l12.694-55.008c8.463-33.851 4.231-67.702-12.694-97.322s-46.545-50.777-76.165-59.24c-21.157-4.231-42.314-4.231-63.471 0l-55.008 12.694c-16.926 4.231-38.083-4.231-46.545-21.157l-29.62-50.777c-25.388-38.083-67.702-59.24-110.017-59.24zM338.893 142.278c42.314 0 84.628-21.157 110.017-63.471l29.62-50.777c4.231-4.231 8.463-12.694 12.694-12.694 8.463-4.231 21.157-8.463 33.851-4.231s21.157 8.463 25.388 21.157l29.62 50.777c29.62 46.545 84.628 71.934 139.636 59.24l55.008-12.694c8.463 0 12.694 0 21.157 0 12.694 4.231 21.157 8.463 25.388 21.157 4.231 8.463 8.463 21.157 4.231 33.851l-12.694 55.008c-12.694 55.008 8.463 110.017 59.24 139.636l50.777 29.62c4.231 4.231 12.694 8.463 12.694 12.694 12.694 21.157 4.231 46.545-12.694 59.24l-50.777 29.62c-46.545 29.62-71.934 84.628-59.24 139.636l12.694 55.008c0 8.463 0 12.694 0 21.157-4.231 21.157-29.62 38.083-50.777 29.62l-55.008-12.694c-55.008-12.694-110.017 8.463-139.636 59.24l-29.62 50.777c-4.231 4.231-8.463 12.694-12.694 12.694-21.157 12.694-46.545 4.231-59.24-12.694v0l-29.62-50.777c-29.62-46.545-84.628-71.934-139.636-59.24l-59.24 8.463c-8.463 0-12.694 0-21.157 0-21.157-4.231-33.851-29.62-29.62-50.777l12.694-55.008c12.694-55.008-8.463-110.017-59.24-139.636l-50.777-29.62c-4.231-4.231-12.694-8.463-12.694-12.694-4.231-8.463-8.463-21.157-4.231-33.851s8.463-21.157 21.157-25.388l50.777-29.62c46.545-29.62 71.934-84.628 59.24-139.636l-12.694-55.008c0-8.463 0-12.694 0-21.157 4.231-12.694 8.463-21.157 21.157-25.388 8.463-4.231 21.157-8.463 33.851-4.231l55.008 12.694c4.231 0 12.694 0 25.388 0z" />
<glyph unicode="&#xe912;" glyph-name="info" d="M512-73.143c-281.6 0-512 230.4-512 512s230.4 512 512 512c281.6 0 512-230.4 512-512s-230.4-512-512-512zM512 848.457c-225.28 0-409.6-184.32-409.6-409.6s184.32-409.6 409.6-409.6 409.6 184.32 409.6 409.6c0 225.28-184.32 409.6-409.6 409.6zM512 305.737c-30.72 0-51.2 20.48-51.2 51.2v30.72c0 0 0 5.12 0 5.12 5.12 61.44 40.96 112.64 97.28 138.24 20.48 10.24 35.84 40.96 30.72 66.56-5.12 20.48-10.24 25.6-15.36 30.72-25.6 15.36-81.92 0-107.52-5.12-25.6-10.24-56.32 0-66.56 30.72-10.24 25.6 5.12 51.2 30.72 61.44 10.24 5.12 117.76 40.96 194.56-5.12 25.6-15.36 56.32-46.080 61.44-102.4 15.36-61.44-20.48-133.12-81.92-168.96-20.48-10.24-35.84-30.72-40.96-56.32v-30.72c0-25.6-20.48-46.080-51.2-46.080zM512 157.257c-30.72 0-51.2 20.48-51.2 51.2v20.48c0 30.72 20.48 51.2 51.2 51.2s51.2-20.48 51.2-51.2v-20.48c0-30.72-20.48-51.2-51.2-51.2z" />
<glyph unicode="&#xe913;" glyph-name="star" d="M777.173-73.143c-17.067 0-29.867 4.267-46.933 12.8l-221.867 153.6-221.867-153.6c-34.133-25.6-85.333-17.067-106.667 17.067-12.8 17.067-17.067 42.667-12.8 64l68.267 285.867-209.067 170.667c-34.133 25.6-38.4 76.8-12.8 110.933 12.8 17.067 29.867 25.6 51.2 29.867l268.8 38.4 102.4 243.2c17.067 38.4 64 59.733 102.4 42.667 17.067-8.533 34.133-21.333 42.667-42.667l102.4-243.2 268.8-38.4c42.667-4.267 72.533-46.933 68.267-89.6-4.267-21.333-12.8-38.4-29.867-51.2l-209.067-170.667 68.267-285.867c8.533-42.667-17.067-85.333-59.733-93.867 0 4.267-4.267 0-12.8 0zM512.64 182.857c17.067 0 29.867-4.267 42.667-12.8l209.067-145.067-64 273.067c-8.533 29.867 4.267 59.733 25.6 76.8l200.533 162.133-256 34.133c-25.6 4.267-51.2 21.333-59.733 46.933l-98.133 234.667-98.133-234.667c-12.8-25.6-34.133-42.667-59.733-46.933l-256-34.133 200.533-162.133c21.333-17.067 34.133-46.933 25.6-76.8l-64-273.067 209.067 145.067c12.8 8.533 25.6 12.8 42.667 12.8zM478.507 886.857v0 0z" />
<glyph unicode="&#xe914;" glyph-name="check" d="M512-73.143c-281.6 0-512 230.4-512 512s230.4 512 512 512c281.6 0 512-230.4 512-512s-230.4-512-512-512zM512 865.524c-234.667 0-426.667-192-426.667-426.667s192-426.667 426.667-426.667c234.667 0 426.667 192 426.667 426.667s-192 426.667-426.667 426.667zM473.6 289.524l-119.467 119.467c-17.067 17.067-17.067 42.667 0 59.733s42.667 17.067 59.733 0l59.733-59.733 149.333 149.333c17.067 17.067 42.667 17.067 59.733 0s17.067-42.667 0-59.733l-209.067-209.067z" />
<glyph unicode="&#xe915;" glyph-name="close" d="M512-73.143c-281.6 0-512 230.4-512 512s230.4 512 512 512c281.6 0 512-230.4 512-512s-230.4-512-512-512zM512 865.524c-234.667 0-426.667-192-426.667-426.667s192-426.667 426.667-426.667c234.667 0 426.667 192 426.667 426.667s-192 426.667-426.667 426.667zM640 268.19c-12.8 0-21.333 4.267-29.867 12.8l-256 256c-17.067 17.067-17.067 42.667 0 59.733s42.667 17.067 59.733 0l256-256c17.067-17.067 17.067-42.667 0-59.733-8.533-8.533-17.067-12.8-29.867-12.8zM384 268.19c-12.8 0-21.333 4.267-29.867 12.8-17.067 17.067-17.067 42.667 0 59.733l256 256c17.067 17.067 42.667 17.067 59.733 0s17.067-42.667 0-59.733l-256-256c-8.533-8.533-17.067-12.8-29.867-12.8z" />
<glyph unicode="&#xe916;" glyph-name="filter" d="M516.267 118.855h-452.266c-25.6 0-42.666 17.067-42.666 42.666s17.067 42.666 42.666 42.666h452.266c25.6 0 42.666-17.067 42.666-42.666s-17.067-42.666-42.666-42.666zM968.534 673.521h-452.266c-25.6 0-42.666 17.067-42.666 42.666s17.067 42.666 42.666 42.666h452.266c25.6 0 42.666-17.067 42.666-42.666s-17.067-42.666-42.666-42.666zM832-30.478c-106.667 0-192.001 85.334-192.001 192.001s85.334 192.001 192.001 192.001 192.001-85.334 192.001-192.001-85.334-192.001-192.001-192.001zM832 268.189c-59.734 0-106.667-46.933-106.667-106.667s46.933-106.667 106.667-106.667 106.667 46.933 106.667 106.667-46.933 106.667-106.667 106.667zM192.001 524.189c-106.667 0-192.001 85.334-192.001 192.001s85.334 192.001 192.001 192.001 192.001-85.334 192.001-192.001-85.334-192.001-192.001-192.001zM192.001 822.855c-59.734 0-106.667-46.933-106.667-106.667s46.933-106.667 106.667-106.667 106.667 46.933 106.667 106.667-46.933 106.667-106.667 106.667z" />
<glyph unicode="&#xe917;" glyph-name="facebook-circle" d="M1023.998 435.743c-1.801 281.403-230.339 508.828-511.994 508.828-282.772 0-512.004-229.232-512.004-512.004 0-254.525 185.722-465.673 429.041-505.317l2.953-0.397v359.982h-130.006v148.908h130.006v113.494c0 129.11 76.46 200.535 193.41 200.535 40.932-0.595 80.54-4.234 119.188-10.703l-4.585 0.634v-126.892h-64.556c-2.864 0.392-6.174 0.615-9.536 0.615-41.002 0-74.241-33.238-74.241-74.241 0-2.425 0.116-4.823 0.344-7.188l-0.023 0.301v-96.598h141.868l-22.699-148.908h-119.468v-359.939c246.594 40.926 432.304 252.64 432.304 507.728 0 0.408 0 0.817-0.001 1.225v-0.064z" />
<glyph unicode="&#xe918;" glyph-name="log-arrow-right" horiz-adv-x="2046" d="M1434.112 621.459h-1379.287c-30.263 0-54.796-24.533-54.796-54.796v0-255.76c0-30.263 24.533-54.796 54.796-54.796v0h1379.287v-210.362c0-0.001 0-0.002 0-0.004 0-60.526 49.065-109.591 109.591-109.591 30.264 0 57.662 12.267 77.494 32.1l393.111 393.111c19.833 19.832 32.1 47.231 32.1 77.494s-12.267 57.662-32.1 77.494l-393.111 393.111c-19.832 19.833-47.231 32.1-77.494 32.1-60.526 0-109.591-49.065-109.591-109.591 0-0.001 0-0.003 0-0.004v0z" />
</font>
</defs>
</svg>
