<svg width="101" height="100" viewBox="0 0 101 100" fill="none" xmlns="http://www.w3.org/2000/svg">
<path d="M51.2998 20C54.5599 22.3323 57.2133 25.2088 59.069 28.7748C62.1753 34.7441 62.831 40.9787 60.9686 47.4533C60.8114 48.0009 60.923 48.2865 61.3286 48.6516C66.7537 53.5325 67.0799 61.9439 62.0722 67.1949C61.7274 67.5566 61.3708 67.8642 60.8334 67.7104C60.2689 67.5498 60.1202 67.0901 60.0492 66.5662C59.8396 65.0147 59.6047 63.4666 59.3935 61.9152C59.2566 60.9146 58.9625 60.6358 57.9721 60.6307C57.0815 60.6273 56.1925 60.6307 55.2308 60.6307C55.4658 61.7969 55.6838 62.8988 55.9086 63.999C56.1739 65.2953 55.8308 65.7195 54.5092 65.7195C52.0687 65.7195 49.6283 65.7212 47.1879 65.7195C46.1214 65.7195 45.7445 65.275 45.9423 64.2272C46.1603 63.061 46.402 61.9 46.6437 60.6831C45.5096 60.6831 44.4111 60.6375 43.3176 60.7017C42.7616 60.7338 42.5858 61.2425 42.5148 61.7445C42.3053 63.2368 42.1008 64.7291 41.8844 66.2197C41.7999 66.7994 41.8152 67.4535 41.1019 67.6918C40.382 67.9335 40.0085 67.4045 39.6096 66.9684C34.7642 61.6904 35.229 53.3415 40.6473 48.5705C40.9989 48.2612 41.0783 48.0144 40.9448 47.5666C37.857 37.2775 41.7019 26.265 50.519 20.0913C50.5477 20.071 50.5646 20.0304 50.5866 20H51.3015H51.2998ZM50.9347 31.1831C48.7731 31.1831 46.6115 31.195 44.4483 31.173C44.0528 31.1696 43.8517 31.2795 43.6996 31.653C41.8253 36.255 41.3031 41.0024 42.6044 45.8021C43.7435 50.0019 45.1834 54.1206 46.5169 58.2663C46.5659 58.4218 46.8853 58.5824 47.0814 58.5841C49.6604 58.6043 52.2377 58.5908 54.8168 58.606C55.1751 58.6077 55.3339 58.4928 55.4421 58.1514C56.5812 54.5668 57.7642 50.9957 58.878 47.4026C60.5241 42.0941 60.2875 36.8533 58.2003 31.6952C58.0414 31.3014 57.842 31.1679 57.4195 31.173C55.2579 31.195 53.0963 31.1831 50.933 31.1831H50.9347ZM44.9705 29.1077H56.9158C55.4083 26.4864 53.5137 24.3029 51.1882 22.4962C51.0784 22.4117 50.7742 22.4421 50.6474 22.5368C50.1877 22.8782 49.7517 23.2567 49.3292 23.6455C47.6087 25.2206 46.1654 27.0171 44.9705 29.1077ZM41.7966 50.296C37.4937 54.0851 37.4599 60.7254 40.115 64.1545C40.262 63.1624 40.3871 62.2008 40.5527 61.2459C40.8349 59.6268 42.0095 58.6364 43.6506 58.601C43.8939 58.5959 44.139 58.601 44.4635 58.601C43.5576 55.7819 42.6889 53.0762 41.7966 50.2977V50.296ZM61.7731 64.1765C64.5769 60.384 64.178 53.8451 60.0864 50.3011C59.2008 53.0609 58.3237 55.7938 57.4364 58.5621C57.6189 58.5807 57.6966 58.5942 57.7744 58.5976C60.1607 58.6702 61.1258 59.5457 61.4351 61.9118C61.5331 62.652 61.6548 63.3889 61.7748 64.1765H61.7731ZM53.7605 63.6931C53.5678 62.7247 53.3954 61.8154 53.196 60.913C53.1724 60.8031 53 60.6476 52.8952 60.6459C51.5144 60.6273 50.1336 60.6341 48.7275 60.6341C48.5213 61.6735 48.3286 62.6537 48.1225 63.6931C49.8531 63.6931 51.511 63.6931 53.1707 63.6931C53.3447 63.6931 53.5205 63.6931 53.7588 63.6931H53.7605Z" fill="#FADB49"/>
<path d="M81.4234 72.8651C77.8235 72.7028 73.4531 75.6621 73.279 80.9622H71.2965C71.2425 79.4496 71.5889 78.0654 72.2007 76.7472C72.4576 76.1928 72.7787 75.6621 73.1252 75.1585C73.3398 74.8458 73.3466 74.638 73.1252 74.327C70.8419 71.1311 65.9931 70.9739 63.5527 74.0431C63.4209 74.2087 63.382 74.5619 63.4631 74.7613C63.8653 75.7433 64.1324 76.7438 64.1459 77.8575H62.1837C62.0857 77.3556 62.0266 76.8435 61.8863 76.3551C61.0987 73.607 58.18 72.0725 55.4877 72.9564C55.1362 73.0713 54.9723 73.2183 54.9925 73.6138C55.0263 74.3202 55.0027 75.0301 55.0027 75.7703H53.0152V67.702H54.9875V70.9688C56.2736 70.6376 57.5107 70.5751 58.7428 70.8793C59.9596 71.1784 61.026 71.7699 61.9928 72.6843C63.0423 71.4928 64.3014 70.6308 65.8055 70.1559C67.3131 69.6793 68.8409 69.6878 70.3974 70.0647C70.7422 68.2986 71.4081 66.7437 72.5201 65.4086C74.8372 62.6233 77.8489 61.4707 81.4251 61.6735V63.6982C80.9299 63.6982 80.4347 63.6864 79.9395 63.7033C76.2586 63.83 72.8751 66.884 72.4035 70.5176C72.3816 70.6883 72.4187 70.9435 72.5303 71.0432C73.3212 71.7446 74.1375 72.4139 74.9623 73.1068C77.5007 71.3812 79.3497 70.7289 81.4268 70.8421V72.8668L81.4234 72.8651Z" fill="#FADB49"/>
<path d="M81.4233 57.6241H79.4392V55.5994H81.4233V57.6241Z" fill="#FADB49"/>
<path d="M31.5344 70.0462C34.8064 69.3026 37.5933 70.1899 39.8952 72.6641C41.9046 70.8456 44.2166 70.3082 46.8684 70.9606V67.7072H48.8846V75.7755H46.8853C46.8853 75.0674 46.8565 74.361 46.8954 73.6579C46.9174 73.2438 46.7669 73.0748 46.385 72.9514C43.4865 72.0118 40.3937 73.8692 39.8681 76.8859C39.814 77.1969 39.7752 77.5112 39.7228 77.8645H37.7471C37.7353 76.7963 37.9584 75.8026 38.4079 74.8697C38.5955 74.4776 38.533 74.2325 38.266 73.9266C35.7055 71.0028 31.1373 71.1549 28.8253 74.2393C28.5566 74.5976 28.5413 74.8392 28.8067 75.2178C29.9982 76.9146 30.6049 78.8075 30.5998 80.9268H28.6073C28.5363 78.7416 27.7876 76.8065 26.2209 75.2364C24.6644 73.6782 22.7664 72.8923 20.5153 72.8298V70.8203C22.9591 70.8051 25.0902 71.6569 26.9172 73.1137C27.747 72.414 28.5515 71.7549 29.3255 71.062C29.4506 70.9504 29.5047 70.6766 29.4793 70.4958C28.9385 66.732 25.5516 63.766 21.7355 63.6984C21.34 63.6916 20.9462 63.6984 20.5068 63.6984C20.5068 63.024 20.5068 62.3818 20.5068 61.7413C24.1218 61.1751 30.1385 63.4077 31.5344 70.0479V70.0462Z" fill="#FADB49"/>
<path d="M20.5001 57.6157H22.4419V59.5897H20.5001V57.6157Z" fill="#FADB49"/>
<path d="M31.6747 75.826V73.874H33.6234V75.826H31.6747Z" fill="#FADB49"/>
<path d="M60.0543 80.9318H58.0972V78.9797H60.0543V80.9318Z" fill="#FADB49"/>
<path d="M69.2938 62.7046H71.2711C71.2711 63.2894 71.2931 63.8386 71.2542 64.3828C71.2458 64.4977 71.0227 64.6786 70.8875 64.687C70.3771 64.7225 69.8633 64.7022 69.2954 64.7022V62.7046H69.2938Z" fill="#FADB49"/>
<path d="M77.3976 68.7346V66.7742H79.3463V68.7346H77.3976Z" fill="#FADB49"/>
<path d="M51.0208 34.2303C54.477 34.3115 57.0966 37.0544 57.0222 40.5174C56.9512 43.8214 54.1221 46.5069 50.8062 46.4174C47.3956 46.3261 44.7761 43.524 44.8639 40.0627C44.9467 36.8246 47.7658 34.1543 51.0208 34.2303ZM46.8886 40.2706C46.8717 42.537 48.6885 44.3876 50.938 44.391C53.1385 44.3944 54.9722 42.5944 54.9975 40.4008C55.0246 38.1107 53.2551 36.2905 50.9786 36.2669C48.7359 36.2449 46.9055 38.0364 46.8886 40.2689V40.2706Z" fill="#FADB49"/>
<path d="M51.9098 51.4791H49.9747V49.5034H51.9098V51.4791Z" fill="#FADB49"/>
<path d="M45.8882 51.4655V49.5H47.8402V51.4655H45.8882Z" fill="#FADB49"/>
<path d="M55.9811 51.4605H54.0494V49.5H55.9811V51.4605Z" fill="#FADB49"/>
<circle cx="50.5" cy="50" r="49" stroke="#FADB49" stroke-width="2"/>
</svg>
