<svg width="101" height="100" viewBox="0 0 101 100" fill="none" xmlns="http://www.w3.org/2000/svg">
<path d="M18.5 59.5055C18.5 56.0789 18.5 52.6523 18.5 49.224C18.539 49.1071 18.5966 48.9935 18.6136 48.8731C19.3155 43.673 23.2304 39.5242 28.405 38.5442C29.3426 38.3662 30.3073 38.3289 31.2924 38.2221C31.2026 38.1237 31.1364 38.0457 31.0635 37.9711C29.446 36.3197 28.6407 34.3428 28.6526 32.0268C28.6627 30.0803 28.6492 28.1356 28.6559 26.1892C28.6746 21.6419 32.2724 18.0102 36.7621 18.0017C41.2703 17.9932 44.8783 21.5978 44.9038 26.1485C44.9156 28.1577 44.9105 30.1668 44.9038 32.176C44.8953 34.3699 44.1171 36.257 42.6166 37.8524C42.4996 37.9762 42.3944 38.1119 42.2944 38.2271C43.2473 38.3357 44.1476 38.4509 45.0496 38.5272C45.2276 38.5425 45.4395 38.4357 45.6023 38.3323C46.2059 37.9474 46.7586 37.4625 47.3961 37.1522C50.5412 35.6195 53.4592 36.1519 56.1872 38.2068C56.3805 38.3526 56.6229 38.551 56.8281 38.5357C57.7843 38.4679 58.7355 38.3323 59.724 38.2187C59.6443 38.1288 59.5799 38.0525 59.5104 37.9796C57.8725 36.3129 57.0722 34.314 57.0909 31.9759C57.1062 30.0312 57.0858 28.0848 57.096 26.1383C57.118 21.6233 60.7108 18.0119 65.1817 18C69.6816 17.9882 73.315 21.6029 73.3421 26.135C73.354 28.1441 73.3489 30.1533 73.3421 32.1624C73.3353 34.3801 72.5452 36.2841 71.0176 37.888C70.9125 37.9983 70.8226 38.122 70.67 38.3085C70.8955 38.3085 71.021 38.3085 71.1448 38.3085C78.2421 38.395 83.4913 43.6934 83.498 50.7771C83.4997 53.2932 83.5014 55.811 83.498 58.3271C83.4913 62.0945 80.8819 64.7021 77.1146 64.7072C74.5137 64.7106 71.9111 64.7072 69.3102 64.7089C69.0915 64.7089 68.8728 64.7275 68.7253 64.7343C68.9152 65.9585 69.2187 67.1199 69.2492 68.2864C69.3255 71.2026 69.3018 74.1222 69.2679 77.0401C69.239 79.5461 67.6232 81.7519 65.2648 82.6064C64.8732 82.7488 64.4713 82.859 64.0746 82.9845H37.9235C37.8726 82.9506 37.8268 82.898 37.7709 82.8862C34.5105 82.1096 32.7217 79.8631 32.72 76.5349C32.7183 73.9561 32.6946 71.3755 32.7336 68.7967C32.7471 67.8947 32.898 66.991 33.0286 66.0941C33.0947 65.6431 33.2541 65.2074 33.388 64.7089C33.0913 64.7089 32.8607 64.7089 32.6302 64.7089C29.9225 64.7089 27.2165 64.7292 24.5088 64.7004C21.9011 64.6733 19.6241 62.9795 18.8086 60.5194C18.6967 60.1837 18.6034 59.8429 18.5017 59.5055H18.5ZM28.6559 62.6658C28.6559 61.1636 28.6678 59.7293 28.6424 58.2949C28.639 58.0982 28.4864 57.8693 28.3389 57.7167C27.5895 56.9419 26.7994 56.2044 26.0686 55.4126C25.8431 55.1684 25.6448 54.7988 25.6329 54.48C25.5837 53.1711 25.6007 51.8588 25.6176 50.5465C25.6261 49.9005 26.0585 49.4767 26.6366 49.4818C27.2148 49.4868 27.62 49.9107 27.6387 50.5635C27.6556 51.1755 27.7116 51.7995 27.6285 52.4014C27.4589 53.6442 27.9642 54.4885 28.8204 55.377C29.7258 56.3163 30.6346 56.7096 31.913 56.6011C34.1629 56.4129 36.0618 57.1979 37.5471 58.9256C37.5674 58.9493 37.62 58.9459 37.6573 58.9544L37.5945 58.8103C38.8594 58.2406 40.0818 57.537 41.3992 57.1369C42.7064 56.7384 44.1052 56.6452 45.4497 56.4197C43.8865 54.9056 42.9607 53.0135 42.8878 50.7517C42.8488 49.5479 42.8726 48.3407 42.8777 47.1352C42.8878 44.865 42.642 42.5591 43.9509 40.3957H32.9489C34.246 41.908 35.4904 43.3594 36.7807 44.8633C37.5115 44.0121 38.1964 43.2136 38.8831 42.4167C39.4138 41.8012 39.9801 41.6927 40.4718 42.1013C40.9652 42.5133 40.9584 43.105 40.4396 43.7171C39.6732 44.6191 38.8814 45.5025 38.1405 46.4248C37.9506 46.6622 37.8183 47.0148 37.8099 47.32C37.7743 48.6306 37.798 49.9429 37.7929 51.2535C37.7895 52.0521 37.408 52.5184 36.7756 52.5167C36.1432 52.5167 35.7668 52.0504 35.7651 51.2502C35.76 49.9175 35.7736 48.5849 35.7549 47.2522C35.7515 47.0182 35.6871 46.7334 35.5447 46.5638C33.8662 44.5767 32.1724 42.6032 30.465 40.6415C30.3379 40.4957 30.0751 40.3787 29.8818 40.3889C24.9513 40.6432 20.6838 45.0074 20.5532 50.004C20.4769 52.9202 20.5091 55.8415 20.5448 58.7594C20.5702 60.8025 22.2216 62.5387 24.2613 62.6506C25.6922 62.7286 27.1317 62.6658 28.6559 62.6658ZM64.4137 58.9968C65.531 57.6455 66.9332 56.8215 68.6473 56.6401C69.568 56.5418 70.5073 56.6214 71.4364 56.5723C71.6992 56.5587 72.0095 56.4417 72.2027 56.2654C72.8436 55.6821 73.4574 55.0667 74.0406 54.4275C74.2153 54.2359 74.334 53.9222 74.3424 53.6594C74.3763 52.6455 74.3475 51.6299 74.3594 50.6143C74.3679 49.9192 74.7782 49.4784 75.3767 49.4818C75.9718 49.4852 76.3736 49.9277 76.3838 50.6245C76.3957 51.4061 76.3075 52.1996 76.4041 52.9694C76.5839 54.4021 76.1719 55.5363 74.9884 56.3739C73.6066 57.3505 73.0708 58.6526 73.3218 60.3413C73.4337 61.0975 73.3404 61.8825 73.3404 62.676C74.6663 62.676 75.8921 62.6777 77.1179 62.676C79.7443 62.6709 81.4601 60.9721 81.4652 58.3627C81.4702 55.7822 81.4719 53.2017 81.4652 50.6228C81.4533 45.2363 77.5876 40.9518 72.2248 40.4058C71.9857 40.3821 71.6449 40.5245 71.4855 40.7059C69.8138 42.6151 68.1624 44.5428 66.528 46.4825C66.3584 46.6842 66.2516 47.003 66.2465 47.2709C66.2177 48.5815 66.2363 49.8938 66.2329 51.2044C66.2312 52.0538 65.8548 52.5285 65.2038 52.5184C64.5561 52.5082 64.2051 52.0402 64.2034 51.1755C64.2018 49.8853 64.2238 48.595 64.1865 47.3065C64.178 47.003 64.0407 46.652 63.8491 46.4146C63.0776 45.4618 62.2503 44.5547 61.4686 43.6103C60.9057 42.9304 61.1906 41.964 61.9959 41.9131C62.3486 41.8911 62.8081 42.1318 63.0692 42.3997C63.8152 43.1661 64.4832 44.007 65.2224 44.8667C66.5212 43.3492 67.769 41.8928 69.0441 40.4041H58.059C59.1289 42.2285 59.1696 44.141 59.1306 46.0738C59.1017 47.532 59.1306 48.9918 59.1238 50.4516C59.1136 52.6455 58.3371 54.5326 56.8366 56.1281C56.7196 56.2518 56.6145 56.3875 56.4687 56.5587C60.2954 56.7622 61.4229 57.1097 64.4154 58.9968H64.4137ZM61.155 74.2612L61.3279 74.3681C61.6517 74.0103 61.9637 73.6373 62.3045 73.2965C62.8657 72.7319 63.4676 72.6861 63.9118 73.1507C64.3391 73.5949 64.2899 74.1731 63.7541 74.7156C62.998 75.4854 62.2265 76.2399 61.4703 77.0079C61.3432 77.1368 61.1736 77.3063 61.1702 77.4606C61.1448 78.6136 61.1567 79.7682 61.1567 80.9516C61.9179 80.9516 62.5927 80.9652 63.2658 80.9482C65.453 80.8957 67.2146 79.1578 67.2367 76.9689C67.2655 74.0934 67.2926 71.2145 67.2282 68.3389C67.1112 63.1304 62.6707 58.7052 57.4605 58.6306C53.1455 58.5696 48.8288 58.5662 44.5138 58.6306C39.3053 58.7103 34.8631 63.1609 34.7631 68.3559C34.7071 71.2314 34.7343 74.1087 34.7563 76.9859C34.7682 78.6678 35.8363 80.2361 37.4504 80.6736C38.5203 80.9635 39.6766 80.9364 40.8414 81.0567C40.8414 79.7648 40.8566 78.6678 40.8261 77.5708C40.821 77.3742 40.66 77.1504 40.5125 76.9961C39.7783 76.2365 39.0204 75.4973 38.2761 74.7462C37.7081 74.1731 37.6454 73.5898 38.093 73.1371C38.5423 72.6828 39.1256 72.7404 39.7037 73.2999C40.0547 73.639 40.4023 73.9798 40.8414 74.4071C40.8414 71.8604 40.8583 69.4715 40.8312 67.0826C40.8227 66.4027 41.0872 65.9907 41.6739 65.6685C44.5274 64.1053 47.3707 62.5234 50.2055 60.9263C50.7684 60.6092 51.2466 60.6211 51.8044 60.9347C54.6019 62.5116 57.4063 64.0765 60.2292 65.6092C60.9142 65.9805 61.1804 66.4519 61.1668 67.2284C61.1278 69.5715 61.1533 71.9147 61.1533 74.2595L61.155 74.2612ZM59.1238 71.8231C59.1238 70.4905 59.1424 69.1578 59.1068 67.8269C59.1 67.5912 58.9322 67.2538 58.7372 67.1436C56.294 65.755 53.8373 64.3918 51.3686 63.0524C51.1652 62.9422 50.7922 62.9608 50.5819 63.0744C48.1523 64.3969 45.7413 65.755 43.3151 67.086C43.0014 67.2589 42.8624 67.4386 42.8658 67.8133C42.8827 70.4769 42.8827 73.1422 42.8658 75.8058C42.8641 76.1721 42.9828 76.3636 43.3049 76.54C45.7312 77.8709 48.1489 79.2171 50.5616 80.5735C50.8719 80.7482 51.1126 80.7566 51.428 80.5786C53.839 79.2222 56.2567 77.8743 58.6863 76.5501C59.0441 76.3552 59.1373 76.1314 59.1306 75.7533C59.1102 74.4427 59.1221 73.1321 59.1221 71.8198L59.1238 71.8231ZM59.134 30.5975C59.134 31.4164 59.1119 31.9878 59.1373 32.5574C59.2747 35.5788 61.7806 38.1085 64.807 38.295C67.9047 38.4866 70.7395 36.3248 71.1736 33.3018C71.3635 31.9725 71.2601 30.6026 71.3194 29.253C71.3363 28.8562 71.1871 28.6528 70.8531 28.4662C69.1203 27.4964 67.3943 26.5131 65.6802 25.511C65.3411 25.3126 65.0868 25.3228 64.7562 25.5178C63.4998 26.2587 62.2672 27.0522 60.9532 27.6745C59.5578 28.3357 58.5931 29.1258 59.1356 30.5958L59.134 30.5975ZM42.9489 30.8908L42.8743 30.884C42.8743 30.3347 42.8522 29.7836 42.8827 29.2343C42.9031 28.8681 42.7708 28.6697 42.4521 28.4917C40.7007 27.5117 38.9696 26.4944 37.2114 25.528C36.9909 25.4059 36.5891 25.4025 36.3704 25.5229C34.5935 26.4995 32.8336 27.5083 31.0873 28.5425C30.8906 28.6595 30.716 28.9834 30.7058 29.219C30.6651 30.2533 30.6736 31.2909 30.6939 32.3269C30.755 35.4245 33.1015 37.9559 36.2008 38.2882C39.1527 38.6035 41.9943 36.6097 42.6776 33.6578C42.8844 32.7626 42.8658 31.8165 42.9489 30.8925V30.8908ZM57.135 49.1715L57.0909 49.1681C57.0909 48.5967 57.1248 48.0236 57.0739 47.4557C57.0536 47.2319 56.901 46.9335 56.7179 46.8249C54.9529 45.7856 53.1726 44.7683 51.3788 43.7748C51.1855 43.6679 50.8363 43.6561 50.6481 43.7595C48.8356 44.7615 47.0367 45.789 45.2513 46.8351C45.0801 46.9351 44.9258 47.2166 44.9207 47.4184C44.8902 48.4967 44.8885 49.575 44.9139 50.6533C44.9868 53.7561 47.4538 56.34 50.5379 56.5672C53.6745 56.7978 56.4822 54.6106 56.9807 51.5045C57.1045 50.7381 57.0875 49.948 57.1367 49.1681L57.135 49.1715ZM44.9394 44.5615C45.1767 44.4411 45.3649 44.3563 45.5447 44.2563C47.0926 43.3933 48.6491 42.5438 50.1801 41.652C50.76 41.3146 51.255 41.3248 51.8315 41.6605C53.271 42.4998 54.7342 43.2966 56.1906 44.1088C56.4602 44.2597 56.7382 44.397 57.0316 44.5513C57.3198 41.4876 54.468 38.4357 51.2669 38.3153C47.7708 38.1848 44.8444 41.0247 44.9411 44.5615H44.9394ZM59.1594 26.2876C59.4001 26.1672 59.5866 26.0807 59.7664 25.9807C61.3143 25.116 62.8708 24.2614 64.4035 23.373C64.9579 23.0526 65.4412 23.0339 66.0007 23.3561C67.5554 24.253 69.1288 25.116 70.6971 25.9908C70.8735 26.0892 71.0549 26.1807 71.2634 26.2926C71.433 23.0933 68.5151 20.0753 65.2953 20.0346C61.8772 19.9905 59.0543 22.8203 59.1594 26.2876ZM42.8929 26.3452C42.7149 23.8664 41.8282 21.9403 39.6952 20.7925C37.581 19.6548 35.4497 19.7362 33.4626 21.1011C31.6909 22.3184 30.7923 24.058 30.6854 26.3096C30.9465 26.1773 31.1144 26.0994 31.2755 26.0078C32.7878 25.1651 34.3155 24.3462 35.8024 23.4612C36.4823 23.056 37.0469 23.039 37.737 23.4476C39.3867 24.4242 41.0771 25.3313 42.8929 26.3452ZM36.0126 60.3413C34.8292 58.6815 32.9862 58.4051 30.7193 58.712V62.6794C31.8672 62.6794 32.9828 62.6879 34.0984 62.6692C34.2341 62.6675 34.4104 62.5539 34.4969 62.4386C35.0021 61.7638 35.487 61.0738 36.0126 60.3413ZM65.9769 60.3329C66.5008 61.0653 66.9976 61.7706 67.5113 62.4641C67.5876 62.5658 67.7419 62.6675 67.8623 62.6692C68.9966 62.6845 70.1309 62.6777 71.2634 62.6777V58.6492C69.2441 58.5289 67.3028 58.5068 65.9769 60.3329ZM46.7993 80.933L46.8417 80.8228C45.5464 80.1039 44.251 79.3867 42.9133 78.6441V80.9313H46.7993V80.933ZM59.1017 78.6322C57.7233 79.4003 56.4364 80.1174 55.1479 80.8363L55.1936 80.9567H59.1017V78.6322Z" fill="#FADB49"/>
<path d="M44.9055 70.9399C44.9055 70.3686 44.8326 69.7853 44.9309 69.2309C44.997 68.8613 45.2242 68.4001 45.526 68.2153C46.7841 67.4422 48.093 66.7487 49.3934 66.0434C50.0055 65.7111 50.5768 65.862 50.8668 66.396C51.1533 66.9216 50.9702 67.471 50.3514 67.8253C49.3612 68.3933 48.3676 68.9528 47.3588 69.4835C47.0333 69.6548 46.9163 69.8565 46.9282 70.2194C46.9536 71.0434 46.9451 71.8691 46.9333 72.6931C46.9231 73.3933 46.5263 73.8341 45.9312 73.8409C45.3327 73.8477 44.9241 73.4069 44.9088 72.7134C44.8953 72.1217 44.9055 71.53 44.9072 70.9365L44.9055 70.9399Z" fill="#FADB49"/>
<path d="M57.0909 72.6336C57.0909 73.205 57.0807 73.7747 57.0943 74.3461C57.1062 74.8666 56.8841 75.2294 56.4314 75.4769C55.1733 76.167 53.9238 76.8757 52.6606 77.5573C52.0096 77.9083 51.4077 77.7608 51.1228 77.2267C50.8329 76.6824 51.0397 76.1501 51.7095 75.772C52.6284 75.2531 53.5457 74.7275 54.4816 74.2426C54.9004 74.0256 55.1106 73.7899 55.0733 73.2779C55.0173 72.4997 55.0496 71.7147 55.0614 70.9331C55.0716 70.2345 55.4717 69.7954 56.0668 69.7903C56.6637 69.7869 57.0621 70.2277 57.0892 70.9195C57.0892 70.9398 57.0892 70.9619 57.0892 70.9822C57.0892 71.5316 57.0892 72.0809 57.0892 72.6302L57.0909 72.6336Z" fill="#FADB49"/>
<path d="M65.3529 36.274C64.7019 36.2757 64.2526 35.9078 64.2085 35.3364C64.1644 34.7667 64.5662 34.3276 65.2037 34.2496C66.511 34.0885 67.0756 33.5188 67.2502 32.1828C67.3299 31.5758 67.7453 31.1876 68.2946 31.2062C68.8677 31.2249 69.2644 31.6725 69.2746 32.3117C69.3068 34.353 67.4113 36.2689 65.3512 36.2757L65.3529 36.274Z" fill="#FADB49"/>
<path d="M36.6112 36.2739C34.5834 36.2417 32.7692 34.4377 32.7234 32.4066C32.7082 31.7131 33.0761 31.2468 33.6695 31.2078C34.2561 31.1689 34.6749 31.5842 34.7512 32.2777C34.8801 33.4611 35.5413 34.1071 36.7621 34.2478C37.4131 34.3224 37.8167 34.7378 37.7912 35.3058C37.7641 35.8992 37.2961 36.2841 36.6112 36.2739Z" fill="#FADB49"/>
<path d="M51.0279 54.553C48.9356 54.5648 47.1452 52.9541 46.9502 50.8822C46.8739 50.0701 47.2283 49.5343 47.876 49.4852C48.4931 49.4377 48.8746 49.8497 48.9729 50.6703C49.0984 51.7249 49.9411 52.5082 50.9668 52.5218C52.0197 52.537 52.8929 51.7486 53.0218 50.6669C53.1201 49.8463 53.5016 49.4343 54.1204 49.4852C54.7664 49.5377 55.1225 50.0769 55.0445 50.8856C54.8444 52.9372 53.0879 54.5411 51.0279 54.553Z" fill="#FADB49"/>
<circle cx="50.5" cy="50" r="49" stroke="#FADB49" stroke-width="2"/>
</svg>
