<svg width="101" height="100" viewBox="0 0 101 100" fill="none" xmlns="http://www.w3.org/2000/svg">
<path d="M77.4753 54.7954C76.7206 55.7288 76.1461 56.7516 76.6944 58.0362C77.2273 59.2885 78.3055 59.6489 79.5609 59.7521V66.839C76.2862 67.6415 75.7302 68.9831 77.4322 71.8341C75.7702 73.493 74.116 75.1427 72.4031 76.8509C71.5329 76.1577 70.5209 75.5616 69.2363 76.0869C67.9502 76.6137 67.5897 77.7088 67.4742 78.9734H60.3719C60.3211 78.6854 60.2718 78.3896 60.2133 78.0954C60.0423 77.2329 59.5848 76.5782 58.7931 76.1778C57.9336 75.7434 57.6056 75.8004 56.9448 76.4766C54.5727 78.9041 51.0439 79.6604 47.9202 78.4081C44.7857 77.1512 42.7787 74.1215 42.6801 70.7328C42.6185 68.5934 43.3471 67.8094 45.4788 67.9172C46.9929 67.9942 48.5132 67.9326 50.0319 67.9326H50.6681C50.0165 67.0885 49.1401 67.0238 48.2668 66.8667C48.2467 66.6264 48.2283 66.3861 48.2036 66.0873C47.0807 66.0873 45.9717 66.0873 44.8612 66.0873C43.401 66.0858 42.7032 65.3896 42.6986 63.9386C42.6971 63.324 42.8927 62.5862 42.6201 62.1303C42.3505 61.679 41.5973 61.5234 41.0674 61.2184C35.2313 57.876 32.106 52.8377 31.6486 46.1344C31.6378 45.9803 31.6855 45.797 31.6162 45.68C31.4591 45.4166 31.2897 45.07 31.0432 44.9776C30.7983 44.8852 30.4194 45.0007 30.1591 45.1393C29.8988 45.2764 29.7062 45.549 29.4968 45.7739C29.2873 45.9988 29.0948 46.2376 28.9315 46.427C27.1478 44.6403 25.4319 42.9198 23.6098 41.0945C23.9594 40.7803 24.3876 40.4029 24.8066 40.0163C25.11 39.736 25.2717 39.4064 25.0977 38.9859C24.919 38.5546 24.5802 38.4036 24.1319 38.4144C23.579 38.4267 23.0245 38.4175 22.4391 38.4175V31.038C22.929 31.038 23.4373 31.0272 23.9471 31.041C24.4323 31.0534 24.8759 31.0102 25.0931 30.4819C25.3149 29.9444 24.9991 29.6086 24.6525 29.2836C24.2906 28.9447 23.9286 28.6074 23.6051 28.307C25.398 26.5157 27.1201 24.7967 28.9161 23.0038C29.141 23.2595 29.3766 23.566 29.6523 23.8309C30.0513 24.2145 30.3763 24.8044 31.0941 24.4886C31.7964 24.179 31.607 23.5383 31.627 22.9838C31.6393 22.6218 31.6301 22.2583 31.6301 21.8547H39.0096C39.0096 22.4277 39.0158 22.9976 39.0081 23.5675C39.0019 23.9911 39.1405 24.3161 39.5487 24.4933C39.9615 24.6735 40.2973 24.5441 40.5869 24.236C40.9812 23.8171 41.3678 23.3919 41.7945 22.9299C42.6555 23.7924 43.441 24.578 44.2266 25.3635C44.8381 25.975 45.4696 26.568 46.0518 27.2057C46.3614 27.5446 46.6741 27.617 47.1131 27.5615C49.7347 27.2304 52.3732 27.1595 54.9824 27.5661C60.8679 28.4826 65.23 31.6433 68.1735 36.7987C68.249 36.9311 68.3229 37.0651 68.3999 37.1991C68.4092 37.2145 68.4261 37.2238 68.5278 37.3193V34.7747H70.373V35.3693C70.373 38.6932 70.4362 42.0187 70.3469 45.3411C70.2991 47.094 69.9864 48.8391 69.7862 50.6443C70.333 50.9031 70.4593 50.8677 72.4786 49.7895C74.1391 51.4515 75.7933 53.1073 77.4784 54.7954H77.4753ZM62.9858 57.4832C63.1136 57.4093 63.1676 57.3893 63.2061 57.3554C63.377 57.2014 63.5495 57.0473 63.7113 56.8841C67.3032 53.2243 68.8944 48.8391 68.4261 43.733C67.8115 37.0359 62.7686 31.2444 56.2609 29.664C54.0829 29.1357 51.8788 29.1896 49.67 29.1958C46.4354 29.2066 43.4657 30.103 40.7532 31.8682C32.0906 37.5087 30.9693 50.0067 38.4952 57.0874C38.6353 57.2198 38.7878 57.34 39.0343 57.551V53.2212H44.5608V64.2066H48.2591V55.0542H53.781V64.1974H57.4793V45.8386H62.9843V57.4832H62.9858ZM77.7464 61.3186C74.977 60.037 74.1468 58.1409 75.0155 55.2005C75.0555 55.0665 74.9677 54.8355 74.8615 54.7261C74.0867 53.9252 73.3011 53.135 72.4956 52.3648C72.3816 52.257 72.1167 52.197 71.9703 52.2509C71.1016 52.5682 70.2283 52.6991 69.3118 52.505C69.1747 52.4757 68.9267 52.5204 68.8743 52.6113C68.6094 53.0872 68.3922 53.5909 68.1596 54.0823C73.4968 56.6915 75.2481 62.6047 73.2534 67.2579C72.2537 69.5915 70.6133 71.3443 68.3229 72.4426C65.2685 73.9058 62.2064 73.7795 59.1736 72.3178C58.9703 72.9431 58.7839 73.5208 58.5975 74.0953C59.8595 74.6919 60.9372 75.6556 61.8306 76.9864C61.8953 77.0819 62.0755 77.1466 62.2033 77.1481C63.337 77.1605 64.4706 77.1666 65.6043 77.142C65.7599 77.1389 65.9847 76.9864 66.0525 76.8432C67.2062 74.4342 69.4504 73.4977 71.938 74.3818C72.0997 74.4388 72.3877 74.3787 72.511 74.2616C73.3181 73.4946 74.1052 72.7044 74.8753 71.8988C74.9831 71.7864 75.0355 71.5199 74.9831 71.3705C74.099 68.8568 75.0355 66.5817 77.4106 65.4743C77.5585 65.405 77.7279 65.1893 77.731 65.0384C77.7572 63.8108 77.7449 62.5816 77.7449 61.317L77.7464 61.3186ZM32.0829 41.3548C31.8226 41.2023 31.6008 41.0868 31.3944 40.9482C28.9746 39.3278 27.7547 37.0543 27.978 34.154C28.1983 31.2798 29.7109 29.1542 32.3494 27.999C35.2698 26.7205 37.9699 27.2781 40.3759 29.3498C40.533 29.4853 40.8318 29.6378 40.9781 29.5762C42.0856 29.108 43.173 28.5874 44.2112 28.1083C43.4318 27.3289 42.6093 26.508 41.7775 25.6762C40.9304 26.4048 39.9384 26.6635 38.8294 26.1922C37.7343 25.727 37.2321 24.8275 37.1335 23.6985H33.4938C33.4107 25.9196 30.8784 27.389 28.8252 25.6793C27.9688 26.5341 27.1155 27.3875 26.2514 28.25C26.9923 29.1064 27.2541 30.0999 26.7859 31.2089C26.3222 32.3056 25.4258 32.8124 24.2875 32.9094V36.5491C26.5902 36.6492 27.9519 39.2523 26.2575 41.227C27.1124 42.0819 27.9657 42.9336 28.8375 43.8054C29.6585 43.0461 30.6474 42.8535 31.7564 43.1955C31.8719 42.5486 31.9751 41.9663 32.0845 41.3533L32.0829 41.3548ZM44.5547 69.7994C44.3976 72.6936 45.3941 74.9671 47.9279 76.3487C50.32 77.6534 52.7167 77.4485 54.8993 75.8143C56.8862 74.3263 57.6133 72.2516 57.4284 69.7994H44.5562H44.5547ZM59.2999 62.8881C59.3045 66.2398 61.8506 68.4393 64.8696 67.8263C66.949 67.4043 68.4985 65.5205 68.5216 63.3856C68.5463 61.2246 67.0707 59.3362 64.9866 58.8541C64.6324 58.7725 64.3644 58.8387 64.0409 59.0636C62.7702 59.9477 61.4871 60.821 60.147 61.5912C59.5309 61.9455 59.0873 62.2427 59.2999 62.8881ZM65.9878 57.1813C66.2281 57.2861 66.4222 57.3677 66.6116 57.454C69.3487 58.7093 70.8444 61.6836 70.2313 64.6487C69.6337 67.5444 67.0383 69.7316 64.0702 69.7655C61.5087 69.7948 59.5864 68.6365 58.2663 66.4508C58.1693 66.2906 58.0076 66.058 57.8705 66.0534C57.3052 66.0349 56.7384 66.0919 56.0776 66.1274C56.304 66.5956 56.5089 67.0022 56.6999 67.415C56.8662 67.7739 57.0865 67.9495 57.5301 67.9526C58.4851 67.9588 59.2752 68.7228 59.2737 69.67C59.2737 70.1768 59.5109 70.3739 59.8837 70.5788C63.1367 72.3732 67.1384 71.8157 69.7677 69.1925C72.4078 66.5586 72.9808 62.503 71.154 59.2623C70.2313 57.6249 68.9021 56.4328 67.1585 55.6888C66.7611 56.1955 66.3945 56.6623 65.9878 57.1798V57.1813ZM32.5974 39.5496C32.7683 39.1168 32.8623 38.7548 33.0471 38.4468C33.3167 37.997 33.2073 37.7382 32.8238 37.3994C31.5731 36.295 31.282 34.5082 32.046 33.0357C32.8207 31.5432 34.4858 30.7438 36.1123 31.1504C36.6745 31.2906 37.1982 31.5878 37.7835 31.8327C38.1933 31.5016 38.6507 31.1335 39.1097 30.7638C37.6649 29.2743 35.3206 28.7984 33.3259 29.567C31.2743 30.3587 29.8372 32.3487 29.794 34.5267C29.7509 36.7047 30.709 38.3436 32.5974 39.5496ZM59.2999 59.9955C59.8159 59.7105 60.2194 59.4563 60.6492 59.2577C61.0574 59.0682 61.159 58.7894 61.1559 58.352C61.1359 54.9957 61.1451 51.6378 61.1451 48.2815V47.6901H59.2999V59.997V59.9955ZM50.0966 64.1989H51.8911V56.901H50.0966V64.1989ZM40.8533 55.045C40.8533 56.2972 40.8503 57.5002 40.858 58.7031C40.858 58.8048 40.9026 58.9542 40.975 58.9989C41.5157 59.3316 42.0702 59.6427 42.6647 59.9862V55.0434H40.8533V55.045ZM34.1531 36.1101C34.8816 35.1321 35.5855 34.1863 36.2895 33.2421C35.4977 32.6753 34.5012 32.8093 33.8897 33.5671C33.2566 34.3511 33.3506 35.3477 34.1515 36.1101H34.1531ZM54.1507 66.1351H51.6431C52.0158 66.6634 52.3809 67.1948 52.7613 67.7139C52.8307 67.8078 52.9523 67.9203 53.054 67.9233C53.6362 67.9434 54.22 67.9326 54.8469 67.9326C54.5974 67.2903 54.3786 66.7234 54.1507 66.1351Z" fill="#FADB49"/>
<path d="M26.1142 64.2329H23.5157C25.6182 60.8689 27.6745 57.5804 29.7847 54.2041C31.8919 57.5727 33.942 60.8535 36.0414 64.2114H33.4907V78.9674H31.6762V62.4246C31.9704 62.4108 32.2862 62.3969 32.7144 62.3769C31.7378 60.8135 30.7921 59.2978 29.7863 57.6867C28.7943 59.2732 27.8455 60.7873 26.8459 62.3846H27.9056V71.5955H26.1127V64.2329H26.1142Z" fill="#FADB49"/>
<path d="M75.9226 45.7694H74.0881V29.2067H75.1617C74.1667 27.6094 73.2225 26.0953 72.2151 24.4811C71.2232 26.066 70.2759 27.5801 69.2778 29.1759H70.3329V32.8556H68.5431V31.0504H65.9292C68.044 27.6664 70.1003 24.3763 72.2105 21C74.3161 24.3671 76.3662 27.6479 78.4656 31.0042H75.9195V45.7694H75.9226Z" fill="#FADB49"/>
<path d="M27.8995 78.9765H26.1251V73.5146H27.8995V78.9765Z" fill="#FADB49"/>
<path d="M46.4508 47.6424C47.2733 45.1733 48.9476 43.8486 51.1872 43.9811C51.8742 44.0211 52.5396 44.3539 53.2235 44.5202C53.4006 44.5633 53.6779 44.5495 53.7934 44.4401C54.562 43.7162 55.289 42.9476 56.053 42.2175C56.3056 41.9756 56.3225 41.7985 56.1593 41.4827C54.7037 38.6579 56.3241 35.3863 59.4493 34.8056C61.8614 34.3589 64.252 35.9916 64.731 38.416C65.2208 40.8913 63.6636 43.308 61.2438 43.8379C60.1486 44.0781 59.0997 43.9549 58.117 43.4251C57.7951 43.2525 57.5979 43.2448 57.3345 43.5236C56.6214 44.2768 55.8651 44.9885 55.1519 45.7417C55.0364 45.8649 54.9563 46.1714 55.0287 46.3008C56.4134 48.7884 55.2243 51.8304 52.7198 52.8378C50.0797 53.9006 47.1871 52.3464 46.5155 49.6709C46.5016 49.6186 46.4724 49.5708 46.4354 49.4892C45.847 49.4892 45.2509 49.4553 44.661 49.5092C44.4823 49.5262 44.279 49.7572 44.1681 49.9405C43.5458 50.9725 42.3475 51.5255 41.2169 51.2728C39.9908 50.9987 39.099 49.9882 39.0127 48.7776C38.9265 47.5669 39.6304 46.4471 40.7594 46.0004C42.0517 45.4875 43.4888 45.9912 44.165 47.2404C44.3391 47.5607 44.5162 47.6747 44.8689 47.6547C45.3849 47.6239 45.904 47.647 46.4477 47.647L46.4508 47.6424ZM62.9874 39.3494C62.9905 37.8415 61.7629 36.5939 60.2595 36.5769C58.7269 36.56 57.4608 37.8045 57.4577 39.334C57.4547 40.8651 58.7115 42.1173 60.2426 42.1081C61.7459 42.0989 62.9843 40.8558 62.9874 39.351V39.3494ZM51.0224 51.3314C52.5257 51.3206 53.7626 50.0745 53.7641 48.5696C53.7657 47.0401 52.5057 45.7894 50.9746 45.8002C49.4698 45.811 48.236 47.054 48.2345 48.5604C48.2329 50.0899 49.4929 51.3422 51.0239 51.3314H51.0224ZM41.7868 47.6485C41.2878 47.6408 40.8642 48.0536 40.8565 48.5542C40.8488 49.0533 41.2616 49.4769 41.7606 49.4846C42.2581 49.4923 42.6833 49.0779 42.691 48.5789C42.6987 48.0798 42.2859 47.6562 41.7853 47.6485H41.7868Z" fill="#FADB49"/>
<path d="M61.1389 39.368C61.1235 39.8671 60.6907 40.2753 60.1932 40.2583C59.6926 40.2429 59.2875 39.8116 59.3029 39.3126C59.3183 38.8105 59.7465 38.4069 60.2471 38.4223C60.7477 38.4377 61.1528 38.869 61.1374 39.3665L61.1389 39.368Z" fill="#FADB49"/>
<path d="M51.9156 48.5712C51.911 49.0702 51.4889 49.4861 50.9914 49.483C50.4908 49.4784 50.0765 49.0579 50.0811 48.5573C50.0857 48.0552 50.5031 47.6424 51.0053 47.647C51.5059 47.6516 51.9202 48.0706 51.9171 48.5712H51.9156Z" fill="#FADB49"/>
<circle cx="50.5" cy="50" r="49" stroke="#FADB49" stroke-width="2"/>
</svg>
