<svg width="101" height="100" viewBox="0 0 101 100" fill="none" xmlns="http://www.w3.org/2000/svg">
<path d="M22.5 47.8039C22.8212 47.3801 23.2585 47.2893 23.7686 47.3027C24.7843 47.328 25.8015 47.3102 26.8798 47.3102C26.8798 47.0261 26.8798 46.8075 26.8798 46.5904C26.8798 42.5467 26.8664 38.5016 26.8827 34.4579C26.905 28.9955 30.1991 24.354 35.2347 22.6482C42.5993 20.1542 50.4397 25.0545 51.3261 32.7863C51.5402 34.6557 51.4956 36.5682 51.4093 38.4525C51.3261 40.2788 49.5905 41.7124 47.7613 41.6604C45.8354 41.6053 44.2753 40.0706 44.2248 38.1328C44.1906 36.8166 44.2307 35.499 44.2084 34.1813C44.1683 31.7855 42.397 29.7064 40.0949 29.3227C37.6009 28.9063 35.2466 30.2403 34.4361 32.5841C34.2398 33.1522 34.1357 33.7798 34.1298 34.3806C34.1015 37.6821 34.1149 40.9852 34.1164 44.2867C34.1164 44.3953 34.1298 44.5039 34.1387 44.6526H53.7085C53.7085 44.4131 53.7085 44.196 53.7085 43.9774C53.7085 40.8052 53.6951 37.6331 53.7115 34.4609C53.7412 28.4438 57.6496 23.5613 63.4511 22.2675C70.3754 20.7238 77.3845 25.6672 78.1489 32.7224C78.3512 34.5948 78.3065 36.5028 78.247 38.39C78.189 40.2059 76.4937 41.6708 74.6525 41.6604C72.7608 41.6499 71.1725 40.1583 71.0595 38.2488C71.0164 37.5096 71.0342 36.7646 71.0506 36.0224C71.0625 35.4707 71.4209 35.1093 71.9012 35.1182C72.3786 35.1272 72.7028 35.49 72.7132 36.0537C72.7237 36.6842 72.7088 37.3148 72.7177 37.9454C72.7355 39.1262 73.5922 40.0051 74.6927 39.9873C75.7798 39.9694 76.6156 39.1069 76.6052 37.9513C76.5903 36.2277 76.6647 34.4906 76.4788 32.7848C75.9657 28.1032 71.8953 24.1934 67.2107 23.7428C61.3764 23.1821 56.4479 26.9655 55.5021 32.7506C55.4099 33.3158 55.3861 33.8958 55.3861 34.4698C55.3801 45.304 55.3816 56.1381 55.3816 66.9737C55.3816 67.1016 55.3816 67.231 55.3816 67.4927C55.5958 67.3262 55.7296 67.225 55.859 67.1194C56.3736 66.6971 56.7245 66.6971 57.2346 67.1388C57.8756 67.6965 58.5077 68.2616 59.278 68.9442V68.1144C59.278 56.9278 59.2751 45.7412 59.2795 34.5531C59.2795 31.1385 61.317 28.5092 64.5397 27.7329C67.8516 26.9358 71.3986 28.9732 72.398 32.2465C72.563 32.7893 72.3905 33.2325 71.9459 33.4005C71.4744 33.5805 71.0253 33.3455 70.8245 32.7834C70.1047 30.7608 68.6889 29.5815 66.5667 29.2691C63.9805 28.8899 61.3452 30.914 61.021 33.521C60.9823 33.8333 60.9511 34.1501 60.9511 34.4639C60.9466 38.5819 60.9481 42.7014 60.9481 46.8194C60.9481 46.9488 60.963 47.0767 60.9764 47.3072H61.6769C67.1869 47.3072 72.6969 47.3072 78.2069 47.3072C79.1007 47.3072 79.5126 47.5808 79.4948 48.1608C79.4769 48.72 79.0784 48.9758 78.2143 48.9758C72.7237 48.9758 67.2315 48.9758 61.7408 48.9758C61.5029 48.9758 61.2649 48.9758 60.9481 48.9758V49.6257C60.9481 56.1009 60.9526 62.5746 60.9392 69.0498C60.9392 69.5183 61.0284 69.7428 61.5519 69.7845C62.8963 69.8916 64.0876 69.5495 65.1241 68.6959C65.725 68.2006 66.2946 67.6682 66.882 67.1551C67.4159 66.6882 67.7698 66.6837 68.2963 67.1388C68.8421 67.6132 69.379 68.0995 69.9263 68.5724C71.815 70.2053 74.3655 70.2291 76.2825 68.6245C76.8506 68.1486 77.3919 67.6385 77.9511 67.1522C78.4478 66.7209 78.9297 66.7001 79.2747 67.0793C79.6405 67.4808 79.5602 67.9552 79.0382 68.4222C78.5133 68.8922 77.9868 69.3621 77.4529 69.8217C74.8964 72.0227 71.4343 72.0376 68.8629 69.8603C68.4525 69.5138 68.0539 69.1539 67.5973 68.7539C67.2731 69.0409 66.9578 69.319 66.6426 69.5986C63.7857 72.1298 60.3131 72.1194 57.4652 69.5733C57.1633 69.3026 56.8539 69.0409 56.5044 68.7375C54.9786 70.3303 53.2564 71.4918 50.9721 71.4813C48.7116 71.4709 47.0088 70.3139 45.4785 68.7048C43.9184 70.305 42.2096 71.4903 39.9223 71.4828C37.6603 71.4769 35.959 70.3154 34.4317 68.7375C33.9825 69.1286 33.584 69.4811 33.1809 69.8276C30.5977 72.0509 27.0671 72.0346 24.5077 69.7785C23.8295 69.1807 23.1722 68.559 22.5045 67.9478V67.3916C23.025 66.6629 23.4295 66.6079 24.0957 67.1849C24.7114 67.7188 25.3123 68.2705 25.9399 68.791C26.1956 69.0037 26.5035 69.1539 26.847 69.3696V48.9803C25.7971 48.9803 24.7813 48.9639 23.7686 48.9877C23.251 48.9981 22.8183 48.8955 22.5 48.4717V47.8039ZM32.4448 44.6451C32.4448 44.4444 32.4448 44.2257 32.4448 44.0056C32.4448 40.8707 32.4388 37.7357 32.4507 34.6007C32.4522 34.0653 32.4775 33.5195 32.5876 32.9975C33.3074 29.5919 36.4215 27.2332 39.7022 27.5797C43.3191 27.9604 45.8666 30.7638 45.883 34.3851C45.8889 35.609 45.8666 36.8344 45.8919 38.0584C45.9142 39.1396 46.7574 39.9679 47.8044 39.9903C48.7964 40.0126 49.7467 39.2244 49.7571 38.2339C49.7764 36.418 49.8463 34.5873 49.6455 32.7893C48.9986 26.9774 43.1287 22.7285 37.3912 23.8201C32.1786 24.8121 28.5796 29.0029 28.5603 34.2988C28.5201 45.9672 28.5499 57.6342 28.538 69.3026C28.538 69.7369 28.6867 69.8455 29.0882 69.8142C30.2571 69.7205 31.2922 69.3145 32.1399 68.5025C32.302 68.3464 32.424 68.0683 32.4284 67.8422C32.4567 66.6183 32.4284 65.3943 32.4493 64.1704C32.4552 63.7971 32.3243 63.6781 31.9674 63.5948C30.5814 63.2736 29.6162 62.063 29.5448 60.6279C29.4793 59.3088 30.3285 58.0253 31.5956 57.5464C31.8514 57.4498 32.1206 57.3903 32.4121 57.307V51.1055C30.5308 50.5567 29.5805 49.5023 29.5418 47.9407C29.5031 46.3866 30.3925 45.362 32.4418 44.6466L32.4448 44.6451ZM34.1164 51.0832C34.1164 53.1102 34.1104 55.0733 34.1342 57.0349C34.1342 57.1375 34.3856 57.3144 34.5298 57.3249C35.0652 57.3635 35.614 57.2892 36.1375 57.3754C36.3933 57.4171 36.7145 57.6758 36.8097 57.9138C36.8959 58.1309 36.8037 58.5414 36.6342 58.7079C36.4394 58.8983 36.0765 58.9846 35.782 58.995C34.744 59.0307 33.7044 58.9846 32.6664 59.0232C31.6402 59.0604 30.9933 60.0241 31.3011 60.9848C31.5242 61.6823 32.1102 62.0363 33.0664 62.0363C39.7439 62.0363 46.4213 62.0363 53.0988 62.0363C53.2787 62.0363 53.4602 62.0363 53.6714 62.0363V59.0069H52.9798C48.6402 59.0069 44.2991 59.0069 39.9595 59.0069C39.7736 59.0069 39.5877 59.0143 39.4033 58.995C38.8843 58.9384 38.5437 58.586 38.5601 58.1369C38.575 57.6818 38.9259 57.3665 39.4554 57.3412C39.6219 57.3338 39.7885 57.3382 39.9566 57.3382C44.3155 57.3382 48.6744 57.3382 53.0333 57.3382C53.246 57.3382 53.4572 57.3189 53.6595 57.31V51.0832H34.1164ZM34.1446 66.6406C34.5715 66.8815 34.9254 67.0272 35.2139 67.2563C35.7791 67.7069 36.2966 68.214 36.8513 68.678C38.6404 70.1726 41.1285 70.1979 42.9413 68.7315C43.5466 68.2423 44.1147 67.7084 44.7007 67.1953C45.2881 66.6807 45.6197 66.6718 46.1997 67.1745C46.7887 67.6846 47.3568 68.2185 47.9576 68.7122C49.482 69.9644 51.57 70.1533 53.2743 69.2372C53.5896 69.0677 53.7234 68.8713 53.716 68.501C53.6922 67.2592 53.707 66.016 53.707 64.7742C53.707 64.4306 53.707 64.0871 53.707 63.7391H34.1446V66.6391V66.6406ZM53.6803 46.3643H53.1687C46.4347 46.3643 39.7008 46.3643 32.9668 46.3643C32.8181 46.3643 32.6679 46.3613 32.5221 46.3851C31.5198 46.5487 30.9412 47.5764 31.3532 48.485C31.6581 49.1543 32.2158 49.3937 32.9326 49.3937C39.7037 49.3863 46.4749 49.3892 53.2445 49.3878C53.3858 49.3878 53.5271 49.3595 53.6773 49.3431V46.3643H53.6803Z" fill="#FADB49"/>
<path d="M22.5 74.6327C23.0279 73.9099 23.4191 73.8609 24.0972 74.4468C24.588 74.8722 25.0699 75.3064 25.5562 75.7362C27.5386 77.4911 30.1025 77.5134 32.1206 75.7868C32.6277 75.3525 33.1215 74.9034 33.6226 74.4617C34.2413 73.9144 34.5551 73.9099 35.1634 74.4453C35.7062 74.9227 36.2401 75.412 36.7933 75.8775C38.6523 77.445 41.1255 77.4688 43.0142 75.9295C43.6031 75.4492 44.1549 74.9242 44.7274 74.4245C45.3 73.9263 45.6212 73.9233 46.1834 74.4096C46.7024 74.8588 47.2125 75.3168 47.7286 75.7689C49.6976 77.4926 52.2734 77.5 54.2499 75.7883C54.754 75.351 55.2493 74.9019 55.7519 74.4632C56.3929 73.9025 56.6829 73.907 57.3343 74.4795C57.8221 74.9078 58.301 75.3451 58.7917 75.7704C60.7622 77.4777 63.283 77.5015 65.2714 75.824C65.7964 75.3823 66.3005 74.9153 66.8136 74.4602C67.4323 73.9114 67.746 73.907 68.3543 74.4424C68.8704 74.8945 69.3805 75.354 69.898 75.8031C71.8299 77.4762 74.3952 77.4881 76.3375 75.8269C76.9011 75.3451 77.444 74.8379 78.0061 74.3546C78.4642 73.962 78.9549 73.9665 79.2836 74.3427C79.6182 74.7249 79.5602 75.1964 79.1007 75.6083C78.4523 76.1898 77.8098 76.7817 77.1287 77.323C74.7343 79.2236 71.4343 79.1984 69.0637 77.2754C68.5759 76.8798 68.1089 76.4575 67.5914 76.0113C67.1779 76.3742 66.7824 76.7311 66.3764 77.0747C63.7307 79.3114 60.27 79.2817 57.6615 76.9988C57.3001 76.6821 56.9417 76.3623 56.5297 75.9994C52.8772 79.6564 49.1949 79.6981 45.4814 76.0054C45.1245 76.3132 44.7765 76.6062 44.4359 76.9081C41.698 79.3396 38.1675 79.3411 35.4266 76.9081C35.0964 76.6151 34.7618 76.3251 34.399 76.0069C34.0138 76.3445 33.6568 76.6612 33.2955 76.9735C30.5576 79.3396 27.079 79.3173 24.3739 76.9096C23.7388 76.3504 23.1246 75.7645 22.5 75.1889V74.6327Z" fill="#FADB49"/>
<circle cx="50.5" cy="50" r="49" stroke="#FADB49" stroke-width="2"/>
</svg>
