<svg width="101" height="100" viewBox="0 0 101 100" fill="none" xmlns="http://www.w3.org/2000/svg">
<path d="M18.5 60.6239C18.7663 59.711 19.3575 59.0321 20.0179 58.3716C27.9155 50.491 35.8099 42.6074 43.6782 34.6975C44.6388 33.7323 45.6764 33.2643 47.0481 33.2935C49.9085 33.3536 52.7704 33.312 55.6307 33.312C55.8031 33.312 55.9771 33.3028 56.1495 33.3182C56.6483 33.3643 56.987 33.7153 56.9885 34.1741C56.9901 34.6329 56.6514 34.9885 56.1572 35.0347C56.0048 35.0485 55.8508 35.0393 55.6969 35.0393C52.6826 35.0393 49.6668 35.0485 46.6525 35.0316C46.0721 35.0285 45.6195 35.2163 45.2146 35.6212C37.0846 43.7604 28.9484 51.892 20.8185 60.0281C20.001 60.8471 20.0148 61.5753 20.8539 62.4159C25.0197 66.5863 29.1901 70.7537 33.3575 74.9241C34.0149 75.583 34.118 76.071 33.6854 76.4898C33.2451 76.9147 32.8064 76.8131 32.1198 76.1265C28.0879 72.093 24.0606 68.0534 20.0164 64.0338C19.3544 63.3749 18.7648 62.693 18.5015 61.7785V60.6254L18.5 60.6239Z" fill="#FADB49"/>
<path d="M39.8187 82.9804C38.8272 82.7464 38.0806 82.1475 37.4017 81.4178C36.7351 80.7019 36.0208 80.0307 35.3326 79.3349C34.8569 78.853 34.8015 78.3496 35.171 77.9724C35.5574 77.5752 36.0362 77.6122 36.5288 78.0987C37.3493 78.9069 38.1606 79.7244 38.975 80.5372C39.9064 81.4655 40.5992 81.4701 41.5244 80.5449C47.6331 74.4378 53.7402 68.3291 59.8473 62.222C59.9828 62.0865 60.1075 61.9357 60.2614 61.8233C60.6494 61.5416 61.0573 61.5216 61.4114 61.8649C61.7639 62.2066 61.7763 62.61 61.4822 63.0056C61.3806 63.1426 61.2513 63.2612 61.1297 63.3843C55.0087 69.5053 48.8831 75.6232 42.7745 81.7549C42.1879 82.3445 41.5136 82.7279 40.7423 82.9804H39.8202H39.8187Z" fill="#FADB49"/>
<path d="M61.2221 35.0472C61.2221 36.2095 61.2021 37.3025 61.2406 38.3924C61.2467 38.5833 61.4638 38.8035 61.6362 38.9467C63.0633 40.129 63.6837 41.63 63.305 43.4466C62.9478 45.16 61.8825 46.3269 60.1891 46.818C58.3756 47.3445 56.7853 46.8688 55.5522 45.4571C54.3314 44.0593 54.0897 42.4197 54.8379 40.7263C55.5968 39.0098 56.9962 38.14 58.8713 38.0461C59.0237 38.0384 59.1777 38.0461 59.3316 38.0399C59.3655 38.0399 59.3993 38.0107 59.5009 37.9629C59.5009 36.8853 59.4778 35.7769 59.5056 34.6684C59.5625 32.3746 61.1035 30.5165 63.3435 30.0377C63.7514 29.9499 64.1825 29.9422 64.6028 29.9407C66.1392 29.9299 67.6756 29.9099 69.212 29.9499C69.7647 29.9638 69.9063 29.7775 69.8693 29.2649C69.8308 28.7307 69.8493 28.1888 69.874 27.653C69.9648 25.6117 71.6367 24.006 73.6657 23.9983C75.6824 23.9906 77.4051 25.6225 77.4959 27.6284C77.5883 29.6775 76.1011 31.4309 74.0613 31.6095C73.267 31.6788 72.4603 31.6203 71.5874 31.6203C71.5874 31.922 71.5874 32.1268 71.5874 32.3315C71.5874 34.4052 71.5935 36.4804 71.5859 38.5541C71.5766 40.814 70.5852 42.4536 68.4792 43.348C68.1436 43.4912 68.1482 43.7037 68.1482 43.9761C68.1513 47.5092 68.1313 51.0439 68.1651 54.577C68.1774 55.8132 67.791 56.8108 66.8812 57.6498C66.0622 58.4041 65.3017 59.2201 64.5089 60.0037C64.0255 60.4809 63.5282 60.5363 63.148 60.1668C62.74 59.7727 62.7923 59.2863 63.3081 58.7675C64.1609 57.9084 65.0123 57.0494 65.8759 56.2027C66.2562 55.8301 66.4301 55.396 66.4301 54.8649C66.4224 48.8147 66.424 42.7661 66.4178 36.716C66.4178 35.5983 65.8651 35.0533 64.7552 35.0502C63.6052 35.0456 62.4567 35.0502 61.2205 35.0502L61.2221 35.0472ZM61.5808 33.3183C62.7185 33.3183 63.7499 33.3152 64.7814 33.3183C66.8119 33.326 68.1313 34.6361 68.1451 36.6667C68.1544 38.1261 68.1467 39.584 68.1513 41.0434C68.1513 41.2035 68.1744 41.3652 68.1928 41.593C69.3675 40.8879 69.8586 39.8965 69.8616 38.6357C69.8663 36.4666 69.8632 34.2974 69.8616 32.1283C69.8616 31.9836 69.8278 31.8389 69.8108 31.7019C67.771 31.7019 65.7759 31.6434 63.7869 31.728C62.8493 31.7681 62.1365 32.3823 61.5839 33.3168L61.5808 33.3183ZM61.102 40.8649C60.1952 41.5037 59.5933 41.2466 59.5071 40.1675C59.4748 39.7533 59.2331 39.7764 58.9606 39.7718C57.6998 39.7472 56.5898 40.6031 56.2603 41.8563C55.937 43.0802 56.5067 44.3579 57.6505 44.9691C58.7743 45.571 60.1491 45.3155 61.0019 44.3472C61.8717 43.3588 61.9225 42.021 61.1035 40.8649H61.102ZM71.6043 29.933C72.2848 29.933 72.8944 29.9392 73.5025 29.9299C73.7119 29.9269 73.9243 29.9038 74.1291 29.8622C75.1559 29.6513 75.8687 28.6645 75.764 27.613C75.6578 26.5523 74.7172 25.7102 73.6518 25.7241C72.5927 25.7379 71.6782 26.5523 71.612 27.6053C71.5658 28.3473 71.6028 29.094 71.6028 29.933H71.6043Z" fill="#FADB49"/>
<path d="M47.0111 64.3525C48.0195 64.4187 48.9693 64.4803 49.9192 64.5434C50.167 64.5603 50.4195 64.5588 50.6628 64.6034C51.16 64.6958 51.4664 65.0884 51.4171 65.5333C51.3678 65.989 51.0091 66.3123 50.4965 66.2907C49.3665 66.2414 48.2381 66.1599 47.1081 66.0921C46.7155 66.069 46.323 66.0521 45.9289 66.0336L45.8365 66.186C46.4969 66.8157 47.1681 67.4345 47.8116 68.0796C48.2227 68.4906 48.2227 69.0002 47.864 69.3527C47.5114 69.6976 47.025 69.7099 46.6309 69.3204C44.6157 67.3206 42.6082 65.3131 40.61 63.2964C40.1866 62.87 40.2082 62.4266 40.6392 61.9786C41.1703 61.426 41.7076 60.8748 42.2711 60.3545C43.4472 59.2691 45.1391 59.1552 46.3353 60.0558C47.5376 60.961 47.8701 62.5097 47.1774 63.983C47.1312 64.0816 47.0881 64.1816 47.0111 64.3556V64.3525ZM44.3216 64.5172C44.7296 64.1339 45.1422 63.8121 45.4732 63.4196C45.9689 62.83 45.9165 62.0187 45.4178 61.5414C44.939 61.0827 44.1492 61.0503 43.5781 61.5199C43.1701 61.8555 42.8114 62.2511 42.4466 62.6052C43.1024 63.2749 43.7166 63.9014 44.3216 64.5188V64.5172Z" fill="#FADB49"/>
<path d="M33.1513 52.4801C33.2514 52.5063 33.4084 52.5248 33.5469 52.5864C36.2195 53.7918 38.8905 55.0003 41.5599 56.2134C41.951 56.392 42.1434 56.7137 42.0757 57.1448C41.9925 57.6743 41.4706 57.9807 40.9457 57.8083C40.6917 57.7252 40.4284 57.6328 40.2129 57.4819C39.6233 57.0693 39.2122 57.2387 38.7704 57.7529C38.2085 58.4056 37.5711 58.9952 36.9461 59.5925C36.7275 59.8004 36.6967 59.9774 36.8337 60.2376C37.0031 60.5593 37.1447 60.8965 37.2833 61.2321C37.508 61.7771 37.3633 62.2435 36.9153 62.4591C36.4396 62.6884 35.9624 62.4945 35.7068 61.9249C34.526 59.3047 33.353 56.6798 32.186 54.052C32.1029 53.8657 32.0629 53.644 32.0706 53.4408C32.0906 52.9066 32.5724 52.474 33.1528 52.4771L33.1513 52.4801ZM35.8469 58.0161C36.4335 57.448 37.0092 56.8908 37.6065 56.3119C36.6136 55.8639 35.6021 55.4067 34.4414 54.8833C34.9725 56.0671 35.4297 57.0847 35.8469 58.0161Z" fill="#FADB49"/>
<path d="M43.5412 50.2865C43.7783 51.692 44.003 52.9929 44.2185 54.2968C44.3263 54.9557 44.1062 55.3544 43.5966 55.4622C43.0532 55.5777 42.6606 55.2821 42.5374 54.614C42.2788 53.2192 42.0294 51.8213 41.8062 50.4204C41.7523 50.0802 41.6415 49.937 41.2858 49.8847C40.1851 49.723 39.0921 49.5198 37.9975 49.3166C37.7389 49.2689 37.3863 49.2273 37.2663 49.0518C37.0846 48.787 36.9522 48.3883 37.0076 48.085C37.0831 47.6694 37.4818 47.4954 37.9098 47.5631C38.9335 47.7232 39.9526 47.9049 40.9749 48.0773C41.0857 48.0958 41.1981 48.1081 41.3967 48.1343C41.235 47.1736 41.0811 46.2561 40.9271 45.3386C40.8917 45.1308 40.8486 44.9229 40.8271 44.7136C40.7686 44.1517 41.0272 43.7637 41.5044 43.6837C41.9986 43.6021 42.3896 43.8561 42.4989 44.4057C42.7022 45.4202 42.873 46.4424 43.0424 47.4646C43.2133 48.4899 43.2071 48.4791 44.2386 48.6485C45.4301 48.844 46.6201 49.0549 47.8086 49.275C48.5199 49.4059 48.8277 49.7908 48.7123 50.3496C48.6045 50.8715 48.2043 51.0793 47.4899 50.9608C46.206 50.7468 44.9236 50.5236 43.5427 50.288L43.5412 50.2865Z" fill="#FADB49"/>
<path d="M48.5553 56.5475C49.1757 57.1448 49.753 57.7021 50.4581 58.381C50.9476 57.8468 51.4556 57.2572 52.0052 56.706C52.5071 56.2011 53.1645 56.2811 53.4462 56.8461C53.6556 57.2679 53.5262 57.6282 53.2029 57.9361C52.6503 58.4626 52.0945 58.986 51.5742 59.4802C52.2331 60.1391 52.8104 60.7164 53.437 61.3414C53.985 60.781 54.5546 60.1852 55.1396 59.6049C55.6153 59.1307 56.1264 59.0861 56.499 59.4632C56.8823 59.8512 56.8407 60.333 56.3573 60.8241C55.6169 61.5769 54.8717 62.3236 54.1174 63.0625C53.5601 63.6106 53.1368 63.609 52.5872 63.061C50.6844 61.1644 48.7846 59.2646 46.8865 57.3618C46.3107 56.7845 46.3122 56.3673 46.8834 55.79C47.627 55.0403 48.3705 54.2921 49.1218 53.5501C49.6067 53.0713 50.0978 53.039 50.4796 53.4408C50.8383 53.8195 50.7967 54.3014 50.3441 54.7632C49.7668 55.3528 49.1772 55.9286 48.5568 56.5459L48.5553 56.5475Z" fill="#FADB49"/>
<path d="M53.6263 51.3995C54.2775 52.0815 54.8301 52.6619 55.4629 53.3254C55.9817 52.7758 56.482 52.2262 57.0054 51.6966C57.4842 51.2132 57.983 51.1809 58.3632 51.5781C58.7235 51.9506 58.685 52.4402 58.2386 52.8974C57.7167 53.4301 57.1794 53.9489 56.6437 54.4785C57.2656 55.0758 57.8552 55.6392 58.5157 56.2735C59.0637 55.71 59.6641 55.0973 60.2568 54.48C60.5539 54.1706 60.9018 54.0613 61.3006 54.2245C61.8332 54.4431 62.0026 55.1204 61.5838 55.5684C60.7433 56.4629 59.8689 57.3265 58.9821 58.1748C58.6096 58.5304 58.1585 58.5011 57.7936 58.1393C55.7923 56.1519 53.7972 54.1567 51.8097 52.1554C51.414 51.7567 51.4156 51.2779 51.8035 50.8792C52.6195 50.0401 53.4462 49.2119 54.2852 48.396C54.6808 48.0111 55.1658 48.0173 55.5168 48.3652C55.857 48.7023 55.8724 49.2165 55.4952 49.6014C54.8794 50.2295 54.2297 50.8237 53.6247 51.4041L53.6263 51.3995Z" fill="#FADB49"/>
<path d="M37.4449 67.5992C38.0653 68.2165 38.618 68.7692 39.2476 69.3958C39.7033 68.917 40.1805 68.3997 40.6763 67.9025C41.1381 67.4376 41.6692 67.4068 42.0356 67.7963C42.382 68.1627 42.3374 68.6691 41.8924 69.1171C41.4075 69.6067 40.9041 70.0808 40.3499 70.6181C41.0473 71.3124 41.7092 71.9698 42.3697 72.6287C42.5052 72.7642 42.6452 72.8966 42.7746 73.0382C43.1641 73.4662 43.1887 73.9742 42.8423 74.3206C42.4898 74.6747 41.9817 74.6685 41.5645 74.2605C40.6593 73.3753 39.771 72.4732 38.8751 71.5772C37.8436 70.5458 36.8106 69.5174 35.7822 68.4829C35.1665 67.864 35.1649 67.4899 35.773 66.8756C36.475 66.1659 37.1801 65.4609 37.8898 64.7589C38.3747 64.2801 38.8704 64.2354 39.2507 64.6188C39.6186 64.9898 39.5709 65.5132 39.1029 65.9827C38.5518 66.537 37.9837 67.0758 37.4464 67.5992H37.4449Z" fill="#FADB49"/>
<path d="M27.3689 59.8882C27.001 60.3085 26.73 60.658 26.4175 60.9643C25.9942 61.38 25.5062 61.38 25.1459 61.0074C24.8165 60.6657 24.8134 60.1592 25.1936 59.7712C26.2528 58.689 27.3227 57.6175 28.405 56.5583C28.8006 56.1704 29.2887 56.1827 29.6381 56.5291C29.9891 56.8755 29.9876 57.3466 29.6227 57.7622C29.4719 57.9346 29.3087 58.0994 29.1363 58.2518C28.9638 58.4026 28.7745 58.5335 28.562 58.6951C28.7899 58.9399 28.9253 59.0939 29.0701 59.2386C30.6419 60.8119 32.2121 62.3868 33.7886 63.9555C34.1319 64.2973 34.3228 64.6668 34.0672 65.1332C33.7562 65.7013 33.1189 65.7259 32.5739 65.184C31.0113 63.6292 29.4534 62.0681 27.897 60.5071C27.7492 60.3578 27.6214 60.1869 27.3674 59.8882H27.3689Z" fill="#FADB49"/>
<circle cx="50.5" cy="50" r="49" stroke="#FADB49" stroke-width="2"/>
</svg>
