<svg width="100" height="100" viewBox="0 0 100 100" fill="none" xmlns="http://www.w3.org/2000/svg">
<path d="M18 52.2659C18.2514 50.9837 18.4189 49.6786 18.7681 48.4243C20.8996 40.75 27.6624 35.0828 35.6122 34.3579C37.3515 34.1992 39.1161 34.335 40.9734 34.335C40.9734 33.9846 40.9734 33.7625 40.9734 33.5416C40.9734 31.8912 40.9709 30.2421 40.9734 28.5917C40.976 27.4516 41.4127 27.001 42.5324 27.001C54.4406 26.9997 66.3488 26.9997 78.2583 27.001C79.3501 27.001 79.8147 27.458 79.8173 28.5371C79.8224 30.7791 79.8224 33.0223 79.8173 35.2643C79.8147 36.3891 79.3729 36.8246 78.2304 36.8309C77.0916 36.8373 75.9516 36.8322 74.7569 36.8322V41.6018C75.3447 41.6018 75.9313 41.6018 76.5178 41.6018C78.1047 41.6018 79.6916 41.6348 81.276 41.5879C82.0593 41.565 82.628 41.8011 83 42.4905V50.4898C82.6915 51.202 82.1418 51.4839 81.3801 51.4394C80.8786 51.4102 80.3759 51.4344 79.8198 51.4344V52.1973C79.8198 56.2598 79.8198 60.3211 79.8198 64.3836C79.8198 65.5985 79.3945 66.0314 78.1859 66.034C76.3032 66.0403 74.4205 66.0352 72.5378 66.0352C72.3105 66.0352 72.0833 66.0352 71.8243 66.0352V70.7998C72.2014 70.7998 72.5543 70.7998 72.9072 70.7998C75.002 70.7998 77.0954 70.7947 79.1901 70.8023C80.075 70.8061 80.6095 71.3025 80.6044 72.0782C80.6006 72.7295 80.1499 73.2386 79.4847 73.3249C79.2968 73.349 79.1051 73.3388 78.9146 73.3388C60.4062 73.3388 41.8977 73.3388 23.3879 73.3388C23.2609 73.3388 23.134 73.3427 23.007 73.3376C22.192 73.3046 21.6575 72.7841 21.6728 72.0388C21.6867 71.3178 22.206 70.8137 23.002 70.8061C24.5457 70.7922 26.0895 70.8023 27.8465 70.8023C27.5405 70.5954 27.3793 70.4989 27.2308 70.3859C26.224 69.6179 25.1932 68.8764 24.2232 68.0652C23.4641 67.4304 23.4107 66.6662 23.9757 66.0835C24.5013 65.5414 25.2528 65.5858 25.9396 66.2142C29.3229 69.3094 33.308 70.8493 37.891 70.7947C45.997 70.697 53.0467 64.5842 54.3264 56.5683C55.7889 47.4087 49.9262 38.9587 40.8033 37.0798C31.5776 35.1793 22.2656 41.6323 20.7815 50.9443C20.4857 52.7991 20.4591 54.645 20.7638 56.5011C20.9567 57.6766 20.1531 58.5171 19.1692 58.1883C18.6068 58.0004 18.344 57.5662 18.2615 56.9974C18.1803 56.4363 18.0876 55.8764 18.0013 55.3166C18.0013 54.301 18.0013 53.2853 18.0013 52.2697L18 52.2659ZM77.2541 29.5794H43.5468V34.2919H44.325C46.9263 34.2919 49.5275 34.2919 52.1288 34.2919C53.081 34.2919 54.0318 34.2919 54.984 34.2919C55.1325 34.2919 55.2798 34.2868 55.4283 34.2957C56.2713 34.3414 56.8172 34.8314 56.8286 35.55C56.84 36.2939 56.2738 36.8233 55.4017 36.8271C53.0111 36.8385 50.6219 36.8322 48.2313 36.8322C48.0117 36.8322 47.7921 36.8322 47.5725 36.8322C47.6893 37.0518 47.8238 37.1445 47.9635 37.2334C49.6558 38.3049 51.164 39.5909 52.4424 41.1334C52.7255 41.4749 53.0048 41.6133 53.4517 41.612C59.4578 41.5968 65.4652 41.6018 71.4714 41.6018H72.1087V36.8322C71.8281 36.8322 71.5996 36.8322 71.3711 36.8322C69.9327 36.8322 68.4943 36.8449 67.056 36.8233C66.2663 36.8106 65.7395 36.2825 65.7356 35.5766C65.7318 34.8936 66.2257 34.3871 66.9798 34.3109C67.1893 34.2906 67.4025 34.2944 67.6133 34.2944C70.5738 34.2944 73.5356 34.2944 76.4962 34.2919C76.7412 34.2919 76.9862 34.2716 77.2528 34.2589V29.5806L77.2541 29.5794ZM54.7237 44.1637C55.2658 45.5552 55.832 46.8945 56.2967 48.2669C56.4655 48.7633 56.6598 48.9054 57.1676 48.9042C64.6984 48.8877 72.228 48.8927 79.7589 48.8915C79.9811 48.8915 80.202 48.8699 80.4229 48.8585V44.1625H54.7237V44.1637ZM54.6729 63.4365H77.2376V58.7773H56.5722C55.9285 60.3579 55.309 61.8762 54.6729 63.4365ZM77.2516 51.4889H57.0406V56.1672H77.2516V51.4889ZM47.2665 70.7592H69.2154V66.034H68.441C63.6841 66.034 58.9259 66.0568 54.1689 66.0136C53.2384 66.0048 52.577 66.1965 51.9498 66.9582C50.6968 68.4816 49.1124 69.6572 47.2665 70.7592Z" fill="#FADB49"/>
<path d="M37.5774 39.4475C45.465 39.4615 51.8978 45.9171 51.8851 53.8059C51.8724 61.6872 45.399 68.1402 37.5254 68.1199C29.6391 68.0996 23.2038 61.6389 23.2165 53.7552C23.2292 45.8701 29.6899 39.4336 37.5762 39.4475H37.5774ZM49.346 53.7653C49.3384 47.278 44.0254 41.9802 37.5343 41.9879C31.047 41.9955 25.748 47.3085 25.7556 53.7983C25.7632 60.278 31.0901 65.5935 37.5673 65.5821C44.0495 65.5719 49.3549 60.2488 49.346 53.7653Z" fill="#FADB49"/>
<path d="M21.4646 63.7107C20.7688 63.7107 20.2001 63.1661 20.1874 62.4856C20.1747 61.795 20.7942 61.1755 21.4785 61.1945C22.1628 61.2136 22.715 61.7861 22.7074 62.4679C22.6998 63.1737 22.1628 63.7095 21.4646 63.7107Z" fill="#FADB49"/>
<path d="M61.2796 34.3338C61.9803 34.3376 62.5415 34.8835 62.5466 35.5652C62.5516 36.2469 61.9905 36.8246 61.3113 36.8373C60.594 36.8512 60.0075 36.2736 60.0202 35.5652C60.0329 34.8682 60.5826 34.33 61.2796 34.3338Z" fill="#FADB49"/>
<path d="M32.738 48.7963C34.2792 49.2508 35.0942 48.465 35.6389 47.1421C35.8382 46.6571 36.1403 46.2128 36.4222 45.7659C37.0125 44.829 38.1043 44.8277 38.6858 45.7735C39.1834 46.5835 39.6671 47.4049 40.1038 48.2491C40.3336 48.6935 40.6243 48.8268 41.1067 48.8077C42.0145 48.7696 42.926 48.7836 43.835 48.8014C45.0702 48.8268 45.6098 49.7675 45.0093 50.8441C44.5573 51.6566 44.1016 52.4678 43.609 53.2562C43.3779 53.6243 43.3538 53.9087 43.5963 54.2896C44.0952 55.0741 44.5459 55.8892 44.9991 56.7004C45.6199 57.81 45.0702 58.7482 43.7931 58.7621C42.8409 58.7723 41.8888 58.7799 40.9366 58.757C40.5735 58.7482 40.3615 58.8637 40.1851 59.1874C39.7217 60.0418 39.2291 60.881 38.7302 61.7151C38.0992 62.7688 37.0011 62.765 36.3701 61.7062C35.9042 60.9254 35.4307 60.1485 35.0168 59.3398C34.7794 58.8764 34.4722 58.7317 33.9682 58.7532C33.0605 58.7926 32.1489 58.7761 31.24 58.7609C30.0517 58.7393 29.5058 57.7922 30.0821 56.7486C30.543 55.9171 31.0114 55.0881 31.5142 54.2807C31.7325 53.9303 31.7503 53.6599 31.5269 53.3031C31.0343 52.5148 30.5811 51.7023 30.124 50.8923C29.4766 49.7472 30.0161 48.823 31.3415 48.7988C31.8062 48.79 32.2721 48.7976 32.738 48.7976V48.7963ZM37.5533 58.6707C37.9164 58.0486 38.2325 57.5307 38.5245 57C38.8203 56.463 39.2647 56.2154 39.8702 56.2231C40.4733 56.2307 41.0763 56.2243 41.7923 56.2243C41.4508 55.6327 41.1867 55.1351 40.8833 54.6615C40.4974 54.0585 40.5101 53.486 40.8909 52.8855C41.1918 52.4119 41.4521 51.913 41.7809 51.3341C41.2096 51.3341 40.7475 51.2985 40.2917 51.3417C39.3561 51.4293 38.7048 51.0903 38.3138 50.2156C38.1208 49.784 37.8428 49.3904 37.5495 48.8877C37.2004 49.4933 36.897 49.9935 36.619 50.5076C36.3041 51.0903 35.8318 51.3569 35.173 51.3379C34.5915 51.3214 34.0101 51.3341 33.3258 51.3341C33.5683 51.7657 33.7168 52.1174 33.9415 52.4119C34.6359 53.3222 34.669 54.2045 33.958 55.1249C33.7206 55.4321 33.5632 55.8016 33.322 56.2243C34.0456 56.2243 34.6537 56.2269 35.2631 56.2243C35.842 56.2205 36.2749 56.4605 36.5631 56.9695C36.864 57.5015 37.1775 58.0258 37.5533 58.6707Z" fill="#FADB49"/>
<circle cx="50" cy="50" r="49" stroke="#FADB49" stroke-width="2"/>
</svg>
