<svg width="73" height="58" viewBox="0 0 73 58" fill="none" xmlns="http://www.w3.org/2000/svg">
<path d="M24.3333 27.4737H6.41792C6.98321 23.6956 8.32744 20.0773 10.3648 16.85C12.4021 13.6227 15.0877 10.8573 18.25 8.73053L23.6946 5.06737L20.3487 0L14.9042 3.66316C10.3212 6.72823 6.56303 10.8813 3.96309 15.7538C1.36314 20.6263 0.00184656 26.0676 0 31.5947V51.8947C0 53.514 0.640921 55.0668 1.78177 56.2118C2.92261 57.3568 4.46993 58 6.08333 58H24.3333C25.9467 58 27.4941 57.3568 28.6349 56.2118C29.7757 55.0668 30.4167 53.514 30.4167 51.8947V33.5789C30.4167 31.9597 29.7757 30.4068 28.6349 29.2619C27.4941 28.1169 25.9467 27.4737 24.3333 27.4737ZM66.9167 27.4737H49.0013C49.5665 23.6956 50.9108 20.0773 52.9481 16.85C54.9854 13.6227 57.671 10.8573 60.8333 8.73053L66.2779 5.06737L62.9625 0L57.4875 3.66316C52.9046 6.72823 49.1464 10.8813 46.5464 15.7538C43.9465 20.6263 42.5852 26.0676 42.5833 31.5947V51.8947C42.5833 53.514 43.2243 55.0668 44.3651 56.2118C45.506 57.3568 47.0533 58 48.6667 58H66.9167C68.5301 58 70.0774 57.3568 71.2182 56.2118C72.3591 55.0668 73 53.514 73 51.8947V33.5789C73 31.9597 72.3591 30.4068 71.2182 29.2619C70.0774 28.1169 68.5301 27.4737 66.9167 27.4737Z" fill="white" fill-opacity="0.22"/>
</svg>
